<svg width="58" height="60" viewBox="0 0 58 60" fill="none" xmlns="http://www.w3.org/2000/svg">
<path d="M52.0516 6.93384H49.1225V3.58668C49.1225 1.61412 47.5084 0 45.5358 0H45.2392C43.2666 0 41.6525 1.61412 41.6525 3.58668V6.93384H16.2878V3.58668C16.2878 1.61412 14.6736 0 12.7011 0H12.4044C10.4318 0 8.81771 1.61412 8.81771 3.58668V6.93384H5.77507C2.58504 6.93384 0 9.51984 0 12.7089V54.222C0 57.412 2.586 59.998 5.77602 59.998H44.7177C45.4831 59.998 46.2165 59.6953 46.7591 59.1554L57.1015 48.8595C57.5656 48.3987 57.826 47.7723 57.826 47.118V12.7095C57.826 9.51947 55.24 6.93347 52.0505 6.93347L52.0516 6.93384ZM41.6529 8.97247V7.48394H49.1224V11.0865C49.1224 13.059 47.5083 14.6731 45.5357 14.6731H45.239C43.2665 14.6731 41.6524 13.059 41.6524 11.0865L41.6529 8.97247ZM8.81812 8.97247V7.48394H16.2877V11.0865C16.2877 13.059 14.6735 14.6731 12.701 14.6731H12.4043C10.4317 14.6731 8.81762 13.059 8.81762 11.0865L8.81812 8.97247ZM53.7442 45.7119H48.0677C46.0132 45.7119 44.3327 47.3924 44.3327 49.4469V55.9167H5.77547C4.84171 55.9167 4.08231 55.1568 4.08231 54.2227L4.08184 21.8451H53.7447V45.7122L53.7442 45.7119Z" fill="#2152FF" fill-opacity="0.85"/>
<path d="M44.8493 30.0729L41.8356 27.0592C41.4129 26.6365 40.7289 26.6304 40.2992 27.0457L27.1282 39.762C26.7073 40.168 26.0428 40.1726 25.6169 39.7731L19.1253 33.6875C18.6626 33.2536 17.9288 33.302 17.5275 33.7931L14.3789 37.641C14.0051 38.0977 14.0604 38.7682 14.5031 39.1584L25.6161 48.9381C26.0462 49.3166 26.6949 49.2999 27.1056 48.9009L44.8396 31.6335C45.2762 31.2071 45.2809 30.5049 44.8489 30.0725L44.8493 30.0729Z" fill="#2152FF" fill-opacity="0.85"/>
</svg>
