<svg width="425" height="425" xmlns="http://www.w3.org/2000/svg" xml:space="preserve" version="1.1">

 <g>
  <title>Layer 1</title>
  <path fill="#1d2731" id="svg_2" d="m293.333,45l0,-25l-30,0l0,25l-101.666,0l0,-25l-30,0l0,25l-131.667,0l0,360l425,0l0,-360l-131.667,0zm-161.666,30l0,25l30,0l0,-25l101.667,0l0,20l30,0l0,-20l101.666,0l0,50l-365,0l0,-50l101.667,0zm-101.667,300l0,-220l365,0l0,220l-365,0z"/>
  <path fill="#1d2731" id="svg_4" d="m226.50051,213.215l-22.82,0c-0.094,0.188 -0.864,0.98 -2.31,2.38c-1.448,1.4 -3.29,2.918 -5.53,4.55c-2.24,1.634 -4.69,3.128 -7.351,4.48c-2.659,1.354 -5.25,2.03 -7.77,2.03l0,20.58c1.866,0 3.966,-0.42 6.3,-1.26c2.332,-0.84 4.62,-1.89 6.86,-3.15c2.239,-1.26 4.246,-2.566 6.02,-3.92c1.772,-1.352 3.032,-2.59 3.78,-3.71l0,58.1l-19.74,0l0,20.16l60.341,0l0,-20.16l-17.78,0l0,-80.08z"/>
  <g id="svg_5"/>
  <g id="svg_6"/>
  <g id="svg_7"/>
  <g id="svg_8"/>
  <g id="svg_9"/>
  <g id="svg_10"/>
  <g id="svg_11"/>
  <g id="svg_12"/>
  <g id="svg_13"/>
  <g id="svg_14"/>
  <g id="svg_15"/>
  <g id="svg_16"/>
  <g id="svg_17"/>
  <g id="svg_18"/>
  <g id="svg_19"/>
 </g>
</svg>