<svg width="425" height="425" xmlns="http://www.w3.org/2000/svg" xml:space="preserve" version="1.1">

 <g>
  <title>Layer 1</title>
  <g id="svg_1">
   <path fill="#1d2731" id="svg_2" d="m293.333,45l0,-25l-30,0l0,25l-101.666,0l0,-25l-30,0l0,25l-131.667,0l0,360l425,0l0,-360l-131.667,0zm-161.666,30l0,25l30,0l0,-25l101.667,0l0,20l30,0l0,-20l101.666,0l0,50l-365,0l0,-50l101.667,0zm-101.667,300l0,-220l365,0l0,220l-365,0z"/>
   <path fill="#1d2731" id="svg_3" d="m204.031,269.706c-1.774,-2.286 -3.92,-4.2 -6.44,-5.74c-2.52,-1.54 -5.32,-2.59 -8.4,-3.15c5.506,-1.212 9.94,-3.592 13.3,-7.14c3.36,-3.546 5.04,-8.072 5.04,-13.58c0,-3.92 -0.888,-7.536 -2.66,-10.85c-1.774,-3.312 -4.224,-6.182 -7.35,-8.61c-3.128,-2.426 -6.86,-4.34 -11.2,-5.74c-4.34,-1.4 -9.03,-2.1 -14.07,-2.1c-3.268,0 -6.558,0.304 -9.87,0.91c-3.314,0.608 -6.488,1.47 -9.52,2.59c-3.034,1.12 -5.834,2.52 -8.4,4.2c-2.568,1.68 -4.69,3.594 -6.37,5.74l14.28,16.52c0.652,-1.12 1.562,-2.286 2.73,-3.5c1.166,-1.212 2.566,-2.332 4.2,-3.36c1.632,-1.026 3.522,-1.866 5.67,-2.52c2.146,-0.652 4.62,-0.98 7.42,-0.98c1.026,0 2.192,0.14 3.5,0.42c1.306,0.28 2.52,0.748 3.64,1.4c1.12,0.654 2.076,1.564 2.87,2.73c0.792,1.168 1.19,2.59 1.19,4.27c0,2.054 -0.654,3.804 -1.96,5.25c-1.308,1.448 -3.08,2.638 -5.32,3.57c-2.24,0.934 -4.854,1.61 -7.84,2.03c-2.988,0.42 -6.208,0.63 -9.66,0.63l-4.62,0l0,18.62l4.62,0c8.772,0 15.516,0.934 20.23,2.8c4.712,1.868 7.07,4.948 7.07,9.24c0,1.774 -0.42,3.338 -1.26,4.69c-0.84,1.354 -1.984,2.474 -3.43,3.36c-1.448,0.888 -3.104,1.564 -4.97,2.03c-1.868,0.468 -3.828,0.7 -5.88,0.7c-3.36,0 -6.254,-0.512 -8.68,-1.54c-2.428,-1.026 -4.434,-2.216 -6.02,-3.57c-1.588,-1.352 -2.824,-2.73 -3.71,-4.13c-0.888,-1.4 -1.47,-2.52 -1.75,-3.36l-11.62,15.26c2.706,5.88 6.79,10.338 12.25,13.37c5.46,3.034 12.11,4.55 19.95,4.55c4.666,0 9.286,-0.538 13.86,-1.61c4.572,-1.072 8.68,-2.776 12.32,-5.11c3.64,-2.332 6.602,-5.296 8.89,-8.89c2.286,-3.592 3.43,-7.862 3.43,-12.81c0,-3.08 -0.468,-6.042 -1.4,-8.89c-0.934,-2.846 -2.288,-5.412 -4.06,-7.7z"/>
   <path fill="#1d2731" id="svg_4" d="m270.671,213.215l-22.82,0c-0.094,0.188 -0.864,0.98 -2.31,2.38c-1.448,1.4 -3.29,2.918 -5.53,4.55c-2.24,1.634 -4.69,3.128 -7.351,4.48c-2.659,1.354 -5.25,2.03 -7.77,2.03l0,20.58c1.866,0 3.966,-0.42 6.3,-1.26c2.332,-0.84 4.62,-1.89 6.86,-3.15c2.239,-1.26 4.246,-2.566 6.02,-3.92c1.772,-1.352 3.032,-2.59 3.78,-3.71l0,58.1l-19.74,0l0,20.16l60.341,0l0,-20.16l-17.78,0l0,-80.08z"/>
  </g>
  <g id="svg_5"/>
  <g id="svg_6"/>
  <g id="svg_7"/>
  <g id="svg_8"/>
  <g id="svg_9"/>
  <g id="svg_10"/>
  <g id="svg_11"/>
  <g id="svg_12"/>
  <g id="svg_13"/>
  <g id="svg_14"/>
  <g id="svg_15"/>
  <g id="svg_16"/>
  <g id="svg_17"/>
  <g id="svg_18"/>
  <g id="svg_19"/>
 </g>
</svg>