<svg width="42" height="62" viewBox="0 0 42 62" fill="none" xmlns="http://www.w3.org/2000/svg">
<path d="M29.4998 37.3693C30.3769 32.9163 30.8282 28.3359 30.8282 23.7475V23.1897H26.9591C26.344 23.1897 25.8431 22.6888 25.8431 22.071V18.7627C25.8431 15.7186 23.6682 13.2432 20.9956 13.2432C18.3225 13.2432 16.1481 15.7191 16.1481 18.7627V22.0714C16.1481 22.6866 15.6472 23.1901 15.0321 23.1901H11.1655V23.7475C11.1655 28.333 11.6169 32.9133 12.494 37.3693L29.4998 37.3693Z" fill="#FB0000"/>
<path d="M29.7722 39.6057H12.219C10.8748 39.6057 9.78223 40.6957 9.78223 42.0399C9.78223 43.3841 10.8748 44.4767 12.219 44.4767H29.7722C31.1137 44.4767 32.209 43.384 32.209 42.0399C32.2064 40.6957 31.1138 39.6057 29.7722 39.6057Z" fill="#FB0000"/>
<path d="M18.7948 6.80942C20.0068 6.5783 21.5483 6.48228 23.2295 6.79638C23.2582 6.53441 23.2864 6.27462 23.4007 6.04394L24.2752 3.30346L20.9925 0L17.6917 3.3009L18.6492 6.19163C18.7191 6.30632 18.7686 6.54483 18.7947 6.80941L18.7948 6.80942Z" fill="#FB0000"/>
<path d="M41.4674 60.1529C40.2919 58.7983 39.5628 57.3968 39.3005 55.9905C38.9503 54.1376 38.9838 52.2925 39.0176 50.5096C39.0359 49.5934 39.0541 48.675 39.015 47.7614C38.9759 46.7804 39.3057 46.064 40.0868 45.4467C41.9344 43.9884 42.5105 41.6346 41.5217 39.5949C41.2285 39.0006 40.821 38.544 40.3435 38.2168L40.3513 12.8728C41.0625 12.4731 41.566 11.7415 41.566 10.867C41.566 9.57982 40.5203 8.53406 39.233 8.53406C37.9458 8.53406 36.9 9.57975 36.9 10.867C36.9 11.7442 37.4062 12.4783 38.1195 12.8755L38.1169 19.8587H32.0292C31.414 19.8587 30.9131 19.3577 30.9131 18.7399C30.9131 14.7305 28.5233 11.139 24.8253 9.58461C24.8097 9.57679 24.7915 9.582 24.7763 9.57418C21.0266 7.84076 17.2609 9.55593 17.2275 9.57157C17.2118 9.57939 17.1936 9.57679 17.1758 9.58461C17.1758 9.58461 17.1731 9.58461 17.1731 9.58721C13.477 11.1321 11.0845 14.7287 11.0845 18.7434C11.0845 19.3586 10.5836 19.8622 9.96845 19.8622L4.44634 19.8617V12.876C5.16013 12.4763 5.6636 11.7447 5.6636 10.8702C5.6636 9.583 4.61791 8.53723 3.33062 8.53723C2.04332 8.53723 0.995075 9.58292 0.995075 10.8702C0.995075 11.7447 1.49859 12.479 2.21189 12.876V37.9319C1.49029 38.2252 0.880745 38.7547 0.50717 39.5099C-0.522882 41.6351 0.0531844 43.9863 1.89826 45.4447C2.68199 46.0651 3.01176 46.7784 2.97263 47.7593C2.93353 48.6756 2.95178 49.5966 2.96742 50.5154C3.00131 52.2957 3.03476 54.1356 2.6846 55.991C2.42263 57.3951 1.69321 58.7962 0.517661 60.1507C0.0532438 60.6877 0.00632158 60.8823 0.00111666 60.9084C0.00372334 60.8901 0.0245764 60.9653 0.268291 61.1938H9.38191C9.44143 61.0252 9.49877 60.768 9.50399 60.563C9.51181 60.3631 9.52745 60.0234 9.61824 59.665C9.61824 59.6441 9.60782 59.6285 9.60782 59.6081V57.213C9.60782 54.9917 11.3804 53.1828 13.5626 53.1828H28.391C30.5862 53.1828 32.3718 54.9914 32.3718 57.213V59.6081C32.3718 59.6885 32.3431 59.7584 32.3275 59.8314C32.3766 60.0234 32.4496 60.1789 32.4704 60.4205C32.5095 60.8254 32.5795 61.0435 32.6963 61.1912H41.7114C41.9373 60.9757 41.9786 60.8771 41.9838 60.8641C41.989 60.8719 41.9712 60.7368 41.4677 60.1529L41.4674 60.1529ZM35.4726 39.7269L34.4113 42.3348C34.2558 44.7715 32.2469 46.7126 29.7715 46.7126H12.2182C9.7423 46.7126 7.73128 44.7689 7.5758 42.3296L6.51708 39.7269C6.12782 38.772 5.38056 38.1077 4.44868 37.8275V35.5854C6.30154 35.9178 7.85857 37.0982 8.58759 38.8863L8.65754 39.0549C9.10371 38.5201 9.65935 38.0843 10.3002 37.7911C9.397 33.1925 8.93258 28.4724 8.93258 23.7445L8.93301 22.071C8.93301 21.4559 9.43392 20.9523 10.0491 20.9523H13.9156V18.7624C13.9156 14.4858 17.0918 11.0085 20.9974 11.0085C24.903 11.0085 28.0792 14.4883 28.0792 18.7624V20.9523H31.9483C32.5635 20.9523 33.0644 21.4532 33.0644 22.071V23.7471C33.0644 28.4776 32.6 33.1982 31.6942 37.7937C32.335 38.0843 32.888 38.5231 33.3369 39.0574L33.4068 38.8863C34.2114 36.9139 36.0043 35.6423 38.1118 35.4841V37.7315C36.9153 37.8766 35.9349 38.5904 35.4727 39.7268L35.4726 39.7269Z" fill="#FB0000"/>
<path d="M28.3966 55.4252H13.5682C12.6185 55.4252 11.8452 56.2298 11.8452 57.2186V58.2434C17.9434 58.2643 24.0445 58.2643 30.1425 58.2434V57.2186C30.1425 56.2298 29.3588 55.4252 28.3961 55.4252H28.3966Z" fill="#FB0000"/>
</svg>
