<svg width="57" height="61" viewBox="0 0 57 61" fill="none" xmlns="http://www.w3.org/2000/svg">
<path fill-rule="evenodd" clip-rule="evenodd" d="M54.2341 24.8126H2.76537C1.2415 24.8126 0.00159833 25.8241 0 27.0669H56.999C56.9974 25.824 55.7576 24.8126 54.2336 24.8126" fill="#FFCE31"/>
<path fill-rule="evenodd" clip-rule="evenodd" d="M0 30.0022C0 37.9994 6.26997 44.9987 15.6037 47.4206C16.1031 47.5509 16.4424 47.9293 16.4424 48.3569V60.7999H40.5571V48.3569C40.5571 47.9293 40.8969 47.5509 41.3963 47.4206C50.7292 44.9995 57 37.9996 57 30.0022V29.0311H0.00102432L0 30.0022Z" fill="#FFCE31"/>
<path fill-rule="evenodd" clip-rule="evenodd" d="M6.56015 2.79819H50.0293L50.0574 2.57696C50.1443 1.91116 49.8873 1.2696 49.3389 0.771532C48.7889 0.274309 48.035 0 47.2135 0H9.37579C8.55529 0 7.80037 0.274298 7.25095 0.771097C6.70153 1.26917 6.44606 1.91116 6.53192 2.57696L6.56015 2.79819Z" fill="#FFCE31"/>
<path fill-rule="evenodd" clip-rule="evenodd" d="M47.459 22.8496L49.7795 4.7616H6.8125L9.133 22.8496H47.459Z" fill="#FFCE31"/>
</svg>
