<svg width="269" height="533" xmlns="http://www.w3.org/2000/svg" xmlns:xlink="http://www.w3.org/1999/xlink">
 <defs>
  <symbol id="w">
   <path d="m18.766,-1.125c-0.96875,0.5 -1.9805,0.875 -3.0312,1.125c-1.043,0.25781 -2.1367,0.39062 -3.2812,0.39062c-3.3984,0 -6.0898,-0.94531 -8.0781,-2.8438c-1.9922,-1.9062 -2.9844,-4.4844 -2.9844,-7.7344c0,-3.2578 0.99219,-5.8359 2.9844,-7.7344c1.9883,-1.9062 4.6797,-2.8594 8.0781,-2.8594c1.1445,0 2.2383,0.13281 3.2812,0.39062c1.0508,0.25 2.0625,0.625 3.0312,1.125l0,4.2188c-0.98047,-0.65625 -1.9453,-1.1406 -2.8906,-1.4531c-0.94922,-0.3125 -1.9492,-0.46875 -3,-0.46875c-1.875,0 -3.3516,0.60547 -4.4219,1.8125c-1.0742,1.1992 -1.6094,2.8555 -1.6094,4.9688c0,2.1055 0.53516,3.7617 1.6094,4.9688c1.0703,1.1992 2.5469,1.7969 4.4219,1.7969c1.0508,0 2.0508,-0.14844 3,-0.45312c0.94531,-0.3125 1.9102,-0.80078 2.8906,-1.4688l0,4.21873z" id="svg_1"/>
  </symbol>
  <symbol id="a">
   <path d="m13.734,-11.141c-0.4375,-0.19531 -0.87109,-0.34375 -1.2969,-0.4375c-0.41797,-0.10156 -0.83984,-0.15625 -1.2656,-0.15625c-1.2617,0 -2.2305,0.40625 -2.9062,1.2188c-0.67969,0.80469 -1.0156,1.9531 -1.0156,3.4531l0,7.0625l-4.8906,0l0,-15.312l4.8906,0l0,2.5156c0.625,-1 1.3438,-1.7266 2.1562,-2.1875c0.82031,-0.46875 1.8008,-0.70312 2.9375,-0.70312c0.16406,0 0.34375,0.01172 0.53125,0.03125c0.19531,0.01172 0.47656,0.03906 0.84375,0.07813l0.0156,4.43699z" id="svg_2"/>
  </symbol>
  <symbol id="b">
   <path d="m17.641,-7.7031l0,1.4062l-11.453,0c0.125,1.1484 0.53906,2.0078 1.25,2.5781c0.70703,0.57422 1.7031,0.85938 2.9844,0.85938c1.0312,0 2.082,-0.14844 3.1562,-0.45312c1.082,-0.3125 2.1914,-0.77344 3.3281,-1.3906l0,3.7656c-1.1562,0.4375 -2.3125,0.76562 -3.4688,0.98438c-1.1562,0.22656 -2.3125,0.34375 -3.4688,0.34375c-2.7734,0 -4.9297,-0.70312 -6.4688,-2.1094c-1.5312,-1.4062 -2.2969,-3.3789 -2.2969,-5.9219c0,-2.5 0.75391,-4.4609 2.2656,-5.8906c1.5078,-1.4375 3.582,-2.1562 6.2188,-2.1562c2.4062,0 4.332,0.73047 5.7812,2.1875c1.4453,1.4492 2.1719,3.3828 2.1719,5.7969l0.0001,0.00001zm-5.0312,-1.625c0,-0.92578 -0.27344,-1.6719 -0.8125,-2.2344c-0.54297,-0.57031 -1.25,-0.85938 -2.125,-0.85938c-0.94922,0 -1.7188,0.26562 -2.3125,0.79688s-0.96484,1.2969 -1.1094,2.2969l6.3594,0z" id="svg_3"/>
  </symbol>
  <symbol id="e">
   <path d="m9.2188,-6.8906c-1.0234,0 -1.793,0.17188 -2.3125,0.51562c-0.51172,0.34375 -0.76562,0.85547 -0.76562,1.5312c0,0.625 0.20703,1.1172 0.625,1.4688c0.41406,0.34375 0.98828,0.51562 1.7188,0.51562c0.92578,0 1.7031,-0.32812 2.3281,-0.98438c0.63281,-0.66406 0.95312,-1.4922 0.95312,-2.4844l0,-0.5625l-2.5469,0.00004zm7.4688,-1.8438l0,8.7344l-4.9219,0l0,-2.2656c-0.65625,0.92969 -1.3984,1.6055 -2.2188,2.0312c-0.82422,0.41406 -1.8242,0.625 -3,0.625c-1.5859,0 -2.8711,-0.45703 -3.8594,-1.375c-0.99219,-0.92578 -1.4844,-2.1289 -1.4844,-3.6094c0,-1.7891 0.61328,-3.1016 1.8438,-3.9375c1.2383,-0.84375 3.1797,-1.2656 5.8281,-1.2656l2.8906,0l0,-0.39062c0,-0.76953 -0.30859,-1.332 -0.92188,-1.6875c-0.61719,-0.36328 -1.5703,-0.54688 -2.8594,-0.54688c-1.0547,0 -2.0312,0.10547 -2.9375,0.3125c-0.89844,0.21094 -1.7305,0.52344 -2.5,0.9375l0,-3.7344c1.0391,-0.25 2.0859,-0.44141 3.1406,-0.57812c1.0625,-0.13281 2.125,-0.20312 3.1875,-0.20312c2.7578,0 4.75,0.54688 5.9688,1.6406c1.2266,1.0859 1.8438,2.8555 1.8438,5.3125l0.00008,0.00004z" id="svg_4"/>
  </symbol>
  <symbol id="d">
   <path d="m7.7031,-19.656l0,4.3438l5.0469,0l0,3.5l-5.0469,0l0,6.5c0,0.71094 0.14062,1.1875 0.42188,1.4375s0.83594,0.375 1.6719,0.375l2.5156,0l0,3.5l-4.1875,0c-1.9375,0 -3.3125,-0.39844 -4.125,-1.2031c-0.80469,-0.8125 -1.2031,-2.1797 -1.2031,-4.1094l0,-6.5l-2.4219,0l0,-3.5l2.4219,0l0,-4.3438l4.90622,0z" id="svg_5"/>
  </symbol>
  <symbol id="j">
   <path d="m12.766,-13.078l0,-8.2031l4.9219,0l0,21.281l-4.9219,0l0,-2.2188c-0.66797,0.90625 -1.4062,1.5703 -2.2188,1.9844s-1.7578,0.625 -2.8281,0.625c-1.8867,0 -3.4336,-0.75 -4.6406,-2.25c-1.2109,-1.5 -1.8125,-3.4258 -1.8125,-5.7812c0,-2.3633 0.60156,-4.2969 1.8125,-5.7969c1.207,-1.5 2.7539,-2.25 4.6406,-2.25c1.0625,0 2,0.21484 2.8125,0.64062c0.82031,0.42969 1.5664,1.0859 2.2344,1.9688l0,0.00018zm-3.2188,9.9219c1.0391,0 1.8359,-0.37891 2.3906,-1.1406c0.55078,-0.76953 0.82812,-1.8828 0.82812,-3.3438c0,-1.457 -0.27734,-2.5664 -0.82812,-3.3281c-0.55469,-0.76953 -1.3516,-1.1562 -2.3906,-1.1562c-1.043,0 -1.8398,0.38672 -2.3906,1.1562c-0.55469,0.76172 -0.82812,1.8711 -0.82812,3.3281c0,1.4609 0.27344,2.5742 0.82812,3.3438c0.55078,0.76172 1.3477,1.1406 2.3906,1.1406z" id="svg_6"/>
  </symbol>
  <symbol id="f">
   <path d="m10.5,-3.1562c1.0508,0 1.8516,-0.37891 2.4062,-1.1406c0.55078,-0.76953 0.82812,-1.8828 0.82812,-3.3438c0,-1.457 -0.27734,-2.5664 -0.82812,-3.3281c-0.55469,-0.76953 -1.3555,-1.1562 -2.4062,-1.1562c-1.0547,0 -1.8594,0.38672 -2.4219,1.1562c-0.55469,0.77344 -0.82812,1.8828 -0.82812,3.3281c0,1.4492 0.27344,2.5586 0.82812,3.3281c0.5625,0.77344 1.3672,1.1562 2.4219,1.1562l0,0.0001zm-3.25,-9.9219c0.67578,-0.88281 1.4219,-1.5391 2.2344,-1.9688c0.82031,-0.42578 1.7656,-0.64062 2.8281,-0.64062c1.8945,0 3.4453,0.75 4.6562,2.25c1.207,1.5 1.8125,3.4336 1.8125,5.7969c0,2.3555 -0.60547,4.2812 -1.8125,5.7812c-1.2109,1.5 -2.7617,2.25 -4.6562,2.25c-1.0625,0 -2.0078,-0.21094 -2.8281,-0.625c-0.8125,-0.42578 -1.5586,-1.0859 -2.2344,-1.9844l0,2.2188l-4.8906,0l0,-21.281l4.8906,0l0,8.20292z" id="svg_7"/>
  </symbol>
  <symbol id="i">
   <path d="m0.34375,-15.312l4.8906,0l4.125,10.391l3.5,-10.391l4.8906,0l-6.4375,16.766c-0.64844,1.6953 -1.4023,2.8828 -2.2656,3.5625c-0.86719,0.6875 -2,1.0312 -3.4062,1.0312l-2.8438,0l0,-3.2188l1.5312,0c0.83203,0 1.4375,-0.13672 1.8125,-0.40625c0.38281,-0.26172 0.67969,-0.73047 0.89062,-1.4062l0.14062,-0.42188l-6.82804,-15.90657z" id="svg_8"/>
  </symbol>
  <symbol id="h">
   <path d="m2.5781,-20.406l5.25,0l0,16.422l9.25,0l0,3.9844l-14.5,0l0,-20.4064z" id="svg_9"/>
  </symbol>
  <symbol id="v">
   <path d="m2.3594,-21.281l4.8906,0l0,21.281l-4.8906,0l0,-21.281z" id="svg_10"/>
  </symbol>
  <symbol id="g">
   <path d="m2.1875,-5.9688l0,-9.3438l4.9219,0l0,1.5312c0,0.83594 -0.00781,1.875 -0.01563,3.125c-0.01171,1.25 -0.01562,2.0859 -0.01562,2.5c0,1.2422 0.03125,2.1328 0.09375,2.6719c0.07031,0.54297 0.17969,0.93359 0.32812,1.1719c0.20703,0.32422 0.47266,0.57422 0.79688,0.75c0.32031,0.16797 0.69141,0.25 1.1094,0.25c1.0195,0 1.8203,-0.39062 2.4062,-1.1719c0.58203,-0.78125 0.875,-1.8672 0.875,-3.2656l0,-7.5625l4.8906,0l0,15.312l-4.8906,0l0,-2.2188c-0.74219,0.89844 -1.5234,1.5586 -2.3438,1.9844c-0.82422,0.41406 -1.7344,0.625 -2.7344,0.625c-1.7617,0 -3.1055,-0.53906 -4.0312,-1.625c-0.92969,-1.082 -1.3906,-2.6602 -1.3906,-4.7344l0,0.0006z" id="svg_11"/>
  </symbol>
  <symbol id="u">
   <path d="m2.3594,-15.312l4.8906,0l0,15.312l-4.8906,0l0,-15.312zm0,-5.9688l4.8906,0l0,4l-4.8906,0l0,-4z" id="svg_12"/>
  </symbol>
  <symbol id="t">
   <path d="m14.312,-14.828l0,3.7188c-1.043,-0.4375 -2.0547,-0.76562 -3.0312,-0.98438c-0.98047,-0.21875 -1.9023,-0.32812 -2.7656,-0.32812c-0.92969,0 -1.6211,0.11719 -2.0781,0.34375c-0.44922,0.23047 -0.67188,0.58984 -0.67188,1.0781c0,0.38672 0.17188,0.68359 0.51562,0.89062c0.34375,0.21094 0.95703,0.36719 1.8438,0.46875l0.85938,0.125c2.5078,0.32422 4.1953,0.85156 5.0625,1.5781c0.86328,0.73047 1.2969,1.8711 1.2969,3.4219c0,1.6367 -0.60547,2.8672 -1.8125,3.6875c-1.1992,0.8125 -2.9922,1.2188 -5.375,1.2188c-1.0234,0 -2.0742,-0.07812 -3.1562,-0.23438c-1.0742,-0.15625 -2.1797,-0.39453 -3.3125,-0.71875l0,-3.7188c0.96875,0.48047 1.9609,0.83984 2.9844,1.0781c1.0312,0.23047 2.0781,0.34375 3.1406,0.34375c0.95703,0 1.6758,-0.12891 2.1562,-0.39062c0.47656,-0.26953 0.71875,-0.66406 0.71875,-1.1875c0,-0.4375 -0.16797,-0.75781 -0.5,-0.96875c-0.33594,-0.21875 -0.99609,-0.38281 -1.9844,-0.5l-0.85938,-0.10938c-2.1797,-0.26953 -3.7031,-0.77344 -4.5781,-1.5156c-0.875,-0.73828 -1.3125,-1.8594 -1.3125,-3.3594c0,-1.625 0.55078,-2.8281 1.6562,-3.6094c1.1133,-0.78906 2.8203,-1.1875 5.125,-1.1875c0.89453,0 1.8359,0.07422 2.8281,0.21875c1,0.13672 2.082,0.35156 3.25,0.64062l-0.00009,0.00004z" id="svg_13"/>
  </symbol>
  <symbol id="s">
   <path d="m2.5781,-20.406l5.25,0l0,20.406l-5.25,0l0,-20.406z" id="svg_14"/>
  </symbol>
  <symbol id="c">
   <path d="m9.6406,-12.188c-1.0859,0 -1.9141,0.39062 -2.4844,1.1719c-0.57422,0.78125 -0.85938,1.9062 -0.85938,3.375s0.28516,2.5938 0.85938,3.375c0.57031,0.77344 1.3984,1.1562 2.4844,1.1562c1.0625,0 1.875,-0.38281 2.4375,-1.1562c0.57031,-0.78125 0.85938,-1.9062 0.85938,-3.375s-0.28906,-2.5938 -0.85938,-3.375c-0.5625,-0.78125 -1.375,-1.1719 -2.4375,-1.1719zm0,-3.5c2.6328,0 4.6914,0.71484 6.1719,2.1406c1.4766,1.418 2.2188,3.3867 2.2188,5.9062c0,2.5117 -0.74219,4.4805 -2.2188,5.9062c-1.4805,1.418 -3.5391,2.125 -6.1719,2.125c-2.6484,0 -4.7148,-0.70703 -6.2031,-2.125c-1.4922,-1.4258 -2.2344,-3.3945 -2.2344,-5.9062c0,-2.5195 0.74219,-4.4883 2.2344,-5.9062c1.4883,-1.4258 3.5547,-2.1406 6.2031,-2.1406z" id="svg_15"/>
  </symbol>
  <symbol id="r">
   <path d="m12.422,-21.281l0,3.2188l-2.7031,0c-0.6875,0 -1.1719,0.125 -1.4531,0.375c-0.27344,0.25 -0.40625,0.6875 -0.40625,1.3125l0,1.0625l4.1875,0l0,3.5l-4.1875,0l0,11.812l-4.8906,0l0,-11.812l-2.4375,0l0,-3.5l2.4375,0l0,-1.0625c0,-1.6641 0.46094,-2.8984 1.3906,-3.7031c0.92578,-0.80078 2.3672,-1.2031 4.3281,-1.2031l3.73435,-0.0001z" id="svg_16"/>
  </symbol>
  <symbol id="q">
   <path d="m16.547,-12.766c0.61328,-0.94531 1.3477,-1.6719 2.2031,-2.1719c0.85156,-0.5 1.7891,-0.75 2.8125,-0.75c1.7578,0 3.0977,0.54688 4.0156,1.6406c0.92578,1.0859 1.3906,2.6562 1.3906,4.7188l0,9.3281l-4.9219,0l0,-7.9844l0,-0.35938c0.00781,-0.13281 0.01562,-0.32031 0.01562,-0.5625c0,-1.082 -0.16406,-1.8633 -0.48438,-2.3438c-0.3125,-0.48828 -0.82422,-0.73438 -1.5312,-0.73438c-0.92969,0 -1.6484,0.38672 -2.1562,1.1562c-0.51172,0.76172 -0.77344,1.8672 -0.78125,3.3125l0,7.5156l-4.9219,0l0,-7.9844c0,-1.6953 -0.14844,-2.7852 -0.4375,-3.2656c-0.29297,-0.48828 -0.8125,-0.73438 -1.5625,-0.73438c-0.9375,0 -1.6641,0.38672 -2.1719,1.1562c-0.51172,0.76172 -0.76562,1.8594 -0.76562,3.2969l0,7.5312l-4.9219,0l0,-15.312l4.9219,0l0,2.2344c0.60156,-0.86328 1.2891,-1.5156 2.0625,-1.9531c0.78125,-0.4375 1.6406,-0.65625 2.5781,-0.65625c1.0625,0 2,0.25781 2.8125,0.76562c0.8125,0.51172 1.4258,1.2305 1.8438,2.1562l0.00003,-0.00023z" id="svg_17"/>
  </symbol>
  <symbol id="p">
   <path d="m17.75,-9.3281l0,9.3281l-4.9219,0l0,-7.1094c0,-1.3438 -0.03125,-2.2656 -0.09375,-2.7656s-0.16797,-0.86719 -0.3125,-1.1094c-0.1875,-0.3125 -0.44922,-0.55469 -0.78125,-0.73438c-0.32422,-0.17578 -0.69531,-0.26562 -1.1094,-0.26562c-1.0234,0 -1.8242,0.39844 -2.4062,1.1875c-0.58594,0.78125 -0.875,1.8711 -0.875,3.2656l0,7.5312l-4.8906,0l0,-21.281l4.8906,0l0,8.2031c0.73828,-0.88281 1.5195,-1.5391 2.3438,-1.9688c0.83203,-0.42578 1.75,-0.64062 2.75,-0.64062c1.7695,0 3.1133,0.54688 4.0312,1.6406c0.91406,1.0859 1.375,2.6562 1.375,4.7188l0,-0.00008z" id="svg_18"/>
  </symbol>
  <symbol id="o">
   <path d="m2.5781,-20.406l5.875,0l7.4219,14l0,-14l4.9844,0l0,20.406l-5.875,0l-7.4219,-14l0,14l-4.9844,0l0,-20.406z" id="svg_19"/>
  </symbol>
  <symbol id="n">
   <path d="m17.75,-9.3281l0,9.3281l-4.9219,0l0,-7.1406c0,-1.3203 -0.03125,-2.2344 -0.09375,-2.7344s-0.16797,-0.86719 -0.3125,-1.1094c-0.1875,-0.3125 -0.44922,-0.55469 -0.78125,-0.73438c-0.32422,-0.17578 -0.69531,-0.26562 -1.1094,-0.26562c-1.0234,0 -1.8242,0.39844 -2.4062,1.1875c-0.58594,0.78125 -0.875,1.8711 -0.875,3.2656l0,7.5312l-4.8906,0l0,-15.312l4.8906,0l0,2.2344c0.73828,-0.88281 1.5195,-1.5391 2.3438,-1.9688c0.83203,-0.42578 1.75,-0.64062 2.75,-0.64062c1.7695,0 3.1133,0.54688 4.0312,1.6406c0.91406,1.0859 1.375,2.6562 1.375,4.7188l0,-0.00038z" id="svg_20"/>
  </symbol>
  <symbol id="m">
   <path d="m2.5781,-20.406l8.7344,0c2.5938,0 4.582,0.57812 5.9688,1.7344c1.3945,1.1484 2.0938,2.7891 2.0938,4.9219c0,2.1367 -0.69922,3.7812 -2.0938,4.9375c-1.3867,1.1562 -3.375,1.7344 -5.9688,1.7344l-3.4844,0l0,7.0781l-5.25,0l0,-20.4063zm5.25,3.8125l0,5.7031l2.9219,0c1.0195,0 1.8047,-0.25 2.3594,-0.75c0.5625,-0.5 0.84375,-1.2031 0.84375,-2.1094c0,-0.91406 -0.28125,-1.6172 -0.84375,-2.1094c-0.55469,-0.48828 -1.3398,-0.73438 -2.3594,-0.73438l-2.9219,0.00008z" id="svg_21"/>
  </symbol>
  <symbol id="l">
   <path d="m2.3594,-15.312l4.8906,0l0,15.031c0,2.0508 -0.49609,3.6172 -1.4844,4.7031c-0.98047,1.082 -2.4062,1.625 -4.2812,1.625l-2.4219,0l0,-3.2188l0.85938,0c0.92578,0 1.5625,-0.21094 1.9062,-0.625c0.35156,-0.41797 0.53125,-1.2461 0.53125,-2.4844l0.00007,-15.0309zm0,-5.9688l4.8906,0l0,4l-4.8906,0l0,-4z" id="svg_22"/>
  </symbol>
  <symbol id="k">
   <path d="m14.719,-14.828l0,3.9844c-0.65625,-0.45703 -1.3242,-0.79688 -2,-1.0156c-0.66797,-0.21875 -1.3594,-0.32812 -2.0781,-0.32812c-1.3672,0 -2.4336,0.40234 -3.2031,1.2031c-0.76172,0.79297 -1.1406,1.9062 -1.1406,3.3438c0,1.4297 0.37891,2.543 1.1406,3.3438c0.76953,0.79297 1.8359,1.1875 3.2031,1.1875c0.75781,0 1.4844,-0.10938 2.1719,-0.32812c0.6875,-0.22656 1.3203,-0.56641 1.9062,-1.0156l0,4c-0.76172,0.28125 -1.5391,0.48828 -2.3281,0.625c-0.78125,0.14453 -1.5742,0.21875 -2.375,0.21875c-2.7617,0 -4.9219,-0.70703 -6.4844,-2.125c-1.5547,-1.4141 -2.3281,-3.3828 -2.3281,-5.9062c0,-2.5312 0.77344,-4.5039 2.3281,-5.9219c1.5625,-1.4141 3.7227,-2.125 6.4844,-2.125c0.80078,0 1.5938,0.07422 2.375,0.21875c0.78125,0.13672 1.5547,0.35156 2.3281,0.64062l0,-0.00018z" id="svg_23"/>
  </symbol>
 </defs>
 <g>
  <title>background</title>
  <rect x="-1" y="-1" width="271" height="535" id="canvas_background" fill="none"/>
 </g>
 <g>
  <title>Layer 1</title>
  <g id="svg_24">
   <path d="m134.74,532.86l-125.23,-353.4c-10.191,-28.688 -10.191,-60.031 0,-88.762c24.512,-69.164 100.45,-105.36 169.61,-80.832c69.172,24.492 105.38,100.42 80.863,169.59l-125.243,353.404zm3.3711,-303.45l0,-188.63l-6.7461,0l0,188.63l6.7461,0zm43.184,-22.777c3.5664,0 6.4609,-2.8789 6.4609,-6.4727l0,-37.57l5.9414,0l0,37.57c0,3.6016 2.9023,6.4727 6.4727,6.4727c3.5742,0 6.4844,-2.8789 6.4844,-6.4727l0,-37.57l7.6211,0l-7.6211,-34.887l0,-7.5078c0,-0.375 0.21875,-0.68359 0.57031,-0.82812c0.44922,-0.18359 0.97266,0.03516 1.1719,0.48828c3.6016,8.7969 5.4805,18.211 5.4883,27.73c0,3.0469 2.4922,5.5117 5.5312,5.5117c3.0391,0 5.5234,-2.4805 5.5234,-5.5312c-0.05469,-17.395 -5.4375,-34.34 -15.457,-48.551c-1.0195,-1.4766 -2.7109,-2.3516 -4.5078,-2.3516l-28.504,0c-1.793,0 -3.4766,0.875 -4.5078,2.3516c-10.02,14.211 -15.422,31.152 -15.457,48.551c-0.01172,3.0508 2.4805,5.5312 5.5234,5.5312c3.0508,0 5.5312,-2.4648 5.5312,-5.5117c0.01172,-9.5195 1.8828,-18.934 5.4727,-27.73c0.15234,-0.33984 0.48047,-0.57031 0.85156,-0.57031c0.50391,0 0.91797,0.42188 0.91797,0.91406l0,7.2227l-7.6328,35.172l7.6328,0l0,37.57c0.01953,3.5938 2.9258,6.4688 6.4922,6.4688l0.00006,0.00009zm-93.09,0c3.5781,0 6.4727,-2.8789 6.4727,-6.4727l0,-79.969c0,-0.375 0.20703,-0.68359 0.54687,-0.82812c0.48047,-0.18359 1.0195,0.03516 1.1914,0.48828c3.6133,8.7969 5.4609,18.211 5.4805,27.73c0,3.0469 2.4805,5.5117 5.5312,5.5117c3.0508,0 5.5312,-2.4805 5.5117,-5.5312c-0.01172,-17.395 -5.4023,-34.34 -15.422,-48.551c-1.043,-1.4766 -2.7227,-2.3516 -4.5312,-2.3516l-28.504,0c-1.7812,0 -3.4648,0.875 -4.5078,2.3516c-10.008,14.211 -15.41,31.152 -15.445,48.551c0,3.0508 2.4531,5.5312 5.5117,5.5312c3.0742,0 5.5312,-2.4648 5.5547,-5.5117c0.02344,-9.5195 1.8711,-18.934 5.4727,-27.73c0.14063,-0.33984 0.46875,-0.57031 0.82813,-0.57031c0.52734,0 0.91797,0.42188 0.91797,0.91406l0,79.969c0,3.6016 2.8906,6.4727 6.4727,6.4727c3.5859,0 6.4844,-2.8789 6.4844,-6.4727l0,-48.742c0,-1.6289 1.3203,-2.9531 2.9531,-2.9531c1.6523,0 2.9727,1.3203 2.9727,2.9531l0,48.742c0.01953,3.5938 2.918,6.4688 6.5078,6.4688l-0.00027,-0.00001zm115.91,-130c0,-7.2344 -5.8516,-13.109 -13.082,-13.109c-7.2422,0 -13.094,5.875 -13.094,13.109c0,7.2031 5.8516,13.074 13.094,13.074c7.2305,0.00391 13.082,-5.8672 13.082,-13.074zm-111.96,0c0,-7.2344 -5.8633,-13.109 -13.105,-13.109c-7.2188,0 -13.07,5.875 -13.07,13.109c0,7.2031 5.8516,13.074 13.07,13.074c7.2422,0.00391 13.105,-5.8672 13.105,-13.074z" id="svg_25" fill="#6fc9d1"/>
   <use x="-143" y="626" xlink:href="#w" id="svg_26" fill="#6fc9d1"/>
   <use x="-122.44922" y="626" xlink:href="#a" id="svg_27" fill="#6fc9d1"/>
   <use x="-108.64063" y="626" xlink:href="#b" id="svg_28" fill="#6fc9d1"/>
   <use x="-89.65234" y="626" xlink:href="#e" id="svg_29" fill="#6fc9d1"/>
   <use x="-70.75781" y="626" xlink:href="#d" id="svg_30" fill="#6fc9d1"/>
   <use x="-57.37109" y="626" xlink:href="#b" id="svg_31" fill="#6fc9d1"/>
   <use x="-38.38281" y="626" xlink:href="#j" id="svg_32" fill="#6fc9d1"/>
   <use x="-8.58984" y="626" xlink:href="#f" id="svg_33" fill="#6fc9d1"/>
   <use x="11.45313" y="626" xlink:href="#i" id="svg_34" fill="#6fc9d1"/>
   <use x="39.45313" y="626" xlink:href="#h" id="svg_35" fill="#6fc9d1"/>
   <use x="57.29297" y="626" xlink:href="#v" id="svg_36" fill="#6fc9d1"/>
   <use x="66.89063" y="626" xlink:href="#g" id="svg_37" fill="#6fc9d1"/>
   <use x="86.82422" y="626" xlink:href="#u" id="svg_38" fill="#6fc9d1"/>
   <use x="96.42188" y="626" xlink:href="#t" id="svg_39" fill="#6fc9d1"/>
   <use x="113.08594" y="626" xlink:href="#e" id="svg_40" fill="#6fc9d1"/>
   <use x="141.73047" y="626" xlink:href="#s" id="svg_41" fill="#6fc9d1"/>
   <use x="152.14844" y="626" xlink:href="#f" id="svg_42" fill="#6fc9d1"/>
   <use x="172.19141" y="626" xlink:href="#c" id="svg_43" fill="#6fc9d1"/>
   <use x="191.42969" y="626" xlink:href="#a" id="svg_44" fill="#6fc9d1"/>
   <use x="205.23438" y="626" xlink:href="#a" id="svg_45" fill="#6fc9d1"/>
   <use x="219.04688" y="626" xlink:href="#e" id="svg_46" fill="#6fc9d1"/>
   <use x="-143" y="654" xlink:href="#r" id="svg_47" fill="#6fc9d1"/>
   <use x="-130.81641" y="654" xlink:href="#a" id="svg_48" fill="#6fc9d1"/>
   <use x="-117.00781" y="654" xlink:href="#c" id="svg_49" fill="#6fc9d1"/>
   <use x="-97.77344" y="654" xlink:href="#q" id="svg_50" fill="#6fc9d1"/>
   <use x="-58.84766" y="654" xlink:href="#d" id="svg_51" fill="#6fc9d1"/>
   <use x="-45.46484" y="654" xlink:href="#p" id="svg_52" fill="#6fc9d1"/>
   <use x="-25.53125" y="654" xlink:href="#b" id="svg_53" fill="#6fc9d1"/>
   <use x="3.20703" y="654" xlink:href="#o" id="svg_54" fill="#6fc9d1"/>
   <use x="26.64063" y="654" xlink:href="#c" id="svg_55" fill="#6fc9d1"/>
   <use x="45.87891" y="654" xlink:href="#g" id="svg_56" fill="#6fc9d1"/>
   <use x="65.8125" y="654" xlink:href="#n" id="svg_57" fill="#6fc9d1"/>
   <use x="95.49219" y="654" xlink:href="#m" id="svg_58" fill="#6fc9d1"/>
   <use x="116.01563" y="654" xlink:href="#a" id="svg_59" fill="#6fc9d1"/>
   <use x="129.82031" y="654" xlink:href="#c" id="svg_60" fill="#6fc9d1"/>
   <use x="149.05859" y="654" xlink:href="#l" id="svg_61" fill="#6fc9d1"/>
   <use x="158.65625" y="654" xlink:href="#b" id="svg_62" fill="#6fc9d1"/>
   <use x="177.64844" y="654" xlink:href="#k" id="svg_63" fill="#6fc9d1"/>
   <use x="194.24219" y="654" xlink:href="#d" id="svg_64" fill="#6fc9d1"/>
  </g>
 </g>
</svg>