<svg width="969" height="1280" xmlns="http://www.w3.org/2000/svg" preserveAspectRatio="xMidYMid meet" version="1.0">
 <metadata>Created by potrace 1.15, written by Peter Selinger 2001-2017</metadata>

 <g>
  <title>Layer 1</title>
  <g id="svg_1" fill="#000000" transform="translate(0 1280) scale(0.1 -0.1)">
   <path fill="#ffffff" id="svg_2" d="m1555,12793c-237,-33 -494,-120 -679,-231c-98,-59 -242,-158 -251,-172c-7,-11 45,-99 158,-270c104,-157 169,-288 226,-452l40,-118l-35,0c-50,0 -154,-51 -207,-101c-68,-65 -73,-106 -21,-185c52,-80 170,-134 294,-134c49,0 60,-4 85,-30c38,-40 104,-64 149,-56c32,6 36,4 42,-18c3,-14 7,-54 7,-89l2,-64l-52,-48c-61,-54 -67,-84 -27,-126l25,-27l-83,-45c-46,-25 -162,-84 -258,-132c-269,-134 -419,-231 -552,-356l-58,-54l-45,-198c-101,-444 -155,-824 -170,-1197c-7,-157 -9,-169 -42,-253c-50,-127 -63,-199 -74,-417c-5,-107 -14,-224 -19,-260c-6,-39 -6,-66 0,-70c22,-14 403,-43 479,-36c105,8 220,39 310,81c40,19 71,29 68,23c-192,-469 -368,-997 -507,-1523c-71,-268 -212,-778 -249,-905c-47,-156 -52,-229 -21,-290c51,-101 186,-138 538,-147c116,-3 212,-9 212,-12c0,-3 -9,-39 -20,-79c-11,-40 -24,-121 -31,-180c-17,-161 -4,-288 68,-652c33,-163 37,-198 33,-300c-2,-63 -4,-203 -4,-310c0,-216 5,-256 79,-595c57,-257 72,-358 86,-585c12,-190 8,-443 -12,-815l-10,-200l-41,-95c-66,-154 -158,-328 -226,-429c-57,-85 -63,-98 -57,-131c15,-90 69,-130 176,-130c57,0 69,4 153,55c160,95 239,174 299,296c21,44 39,62 90,96c60,39 67,42 97,32c33,-12 165,-7 178,6c4,3 7,65 7,136l0,129l36,0l36,0l5,763c6,795 -1,1137 -27,1322c-16,114 -43,224 -66,266c-16,31 -15,47 27,383c49,393 57,744 21,971c-2,9 311,10 320,1c2,-2 17,-53 33,-112c46,-174 125,-383 264,-698l65,-148l-16,-97c-12,-73 -17,-196 -20,-511l-5,-415l77,-660c119,-1032 143,-1226 155,-1240c6,-7 28,-15 51,-19l40,-6l-7,-50c-6,-47 3,-106 28,-172c13,-34 52,-48 137,-49c36,0 80,-5 98,-12c17,-7 115,-90 218,-184c102,-95 202,-181 223,-192c83,-42 180,-34 243,19c31,25 34,32 33,78c-3,73 -52,169 -208,400c-73,108 -149,225 -169,260l-36,62l29,0c17,0 30,3 30,8c0,4 -4,57 -10,117c-33,378 -65,1020 -85,1665c-34,1146 -30,1105 -140,1741c-36,206 -65,381 -65,387c0,7 8,12 18,12c16,0 24,-27 60,-192c22,-106 170,-794 327,-1528c158,-734 351,-1632 429,-1995c135,-630 142,-660 167,-674c34,-19 77,-8 84,22c4,16 -825,3995 -924,4436l-9,43l26,-6c15,-3 63,-9 107,-12c62,-5 83,-4 91,7c9,10 -1,109 -36,384c-64,491 -103,711 -163,907l-15,47l39,73c60,113 104,266 174,608c35,173 76,355 90,403c50,173 59,254 58,502l-1,230l-40,160c-22,88 -64,259 -92,380c-62,262 -114,443 -170,591c-31,82 -42,127 -44,184c-3,48 -19,126 -46,220c-23,80 -44,171 -47,202c-5,50 -10,61 -47,96c-170,165 -475,326 -659,348c-31,4 -57,11 -57,15c0,5 8,9 18,9c27,1 105,39 134,67c36,34 47,82 22,100c-26,19 -54,16 -156,-17l-93,-29l-25,24c-14,13 -42,31 -62,40c-33,13 -38,19 -38,50c0,23 -7,38 -21,49c-21,14 -21,15 20,72c90,126 93,253 6,310c-17,11 -22,20 -16,28c10,11 7,126 -5,179c-5,26 -4,27 36,27c36,0 48,6 77,38c62,66 66,83 60,213c-6,135 -19,171 -71,190l-34,12l25,20c14,11 38,49 54,84c31,68 29,81 -10,117c-35,31 -68,13 -172,-94l-96,-100l-42,89c-73,157 -175,425 -307,799c-19,55 -18,55 -89,45zm1172,-4199c22,-143 61,-267 105,-333c60,-90 69,-140 78,-451c5,-151 11,-312 13,-357c4,-68 2,-85 -12,-97c-56,-51 -83,9 -101,216c-10,130 -32,199 -96,313c-44,77 -45,81 -34,124c14,56 15,255 1,451c-6,85 -12,183 -14,218l-3,63l24,-24c19,-19 27,-44 39,-123zm-1884,-31c8,-83 20,-152 29,-171l16,-32l-33,0c-18,0 -47,-3 -64,-6l-31,-7l27,69c23,61 27,83 27,191c1,67 4,115 9,108c4,-8 13,-76 20,-152z"/>
   <path fill="#ffffff" id="svg_3" d="m6305,11378c-11,-6 -35,-24 -53,-41c-27,-26 -39,-31 -75,-28c-52,3 -192,-41 -247,-78c-43,-29 -80,-74 -112,-136c-11,-22 -56,-77 -98,-121c-43,-45 -92,-101 -109,-124c-17,-24 -49,-59 -71,-78c-62,-52 -82,-100 -74,-173c4,-39 13,-64 24,-72c9,-7 20,-24 23,-38c10,-40 43,-75 92,-99c38,-18 50,-20 77,-11c40,14 35,15 52,-17c31,-59 38,-146 21,-244c-19,-112 -22,-108 90,-112c38,-1 40,-3 45,-36c3,-24 12,-38 28,-45c12,-5 22,-15 22,-20c0,-6 13,-21 29,-32c22,-17 30,-32 35,-73c11,-81 38,-100 141,-100c45,0 102,6 128,14c45,13 46,13 51,-10c15,-57 17,-144 7,-196c-16,-77 -62,-125 -176,-184c-182,-96 -238,-134 -337,-231l-68,-66l0,31c0,22 -7,36 -24,47c-13,9 -27,26 -30,38c-7,27 -43,68 -79,92c-32,21 -99,13 -126,-16c-17,-18 -18,-18 -46,11c-39,41 -60,38 -84,-9c-11,-21 -39,-53 -61,-71l-41,-33l6,37c7,35 6,36 -21,36c-16,0 -48,-11 -71,-25c-48,-27 -48,-27 -31,10c10,23 9,29 -15,51c-19,17 -26,32 -22,47c7,30 0,38 -78,80c-86,47 -115,47 -163,2c-35,-34 -38,-35 -61,-20c-44,29 -69,34 -96,20c-25,-13 -26,-12 -38,23c-7,21 -21,51 -33,68c-18,28 -23,31 -48,22c-38,-14 -58,-55 -58,-123l0,-56l-47,40c-51,42 -102,67 -113,54c-14,-15 11,-73 44,-107l34,-33l-52,-23c-53,-23 -61,-24 -137,-14c-45,6 -47,5 -68,-30c-17,-28 -20,-39 -12,-55c15,-26 14,-74 -1,-89c-7,-7 -26,-12 -44,-12c-46,0 -63,-9 -79,-41c-8,-15 -15,-30 -15,-33c0,-2 44,-6 98,-8c74,-2 105,-8 126,-21c26,-17 26,-20 12,-36c-9,-10 -16,-25 -16,-34c0,-12 -10,-15 -42,-14c-39,2 -97,-24 -98,-43c0,-4 16,-12 36,-19c41,-15 78,-47 69,-61c-4,-6 -19,-10 -34,-10c-16,0 -34,-7 -41,-15c-10,-13 -17,-12 -51,5c-51,27 -83,25 -136,-5c-42,-25 -43,-26 -27,-50c19,-29 80,-44 142,-35c48,8 51,5 20,-20c-20,-16 -21,-20 -9,-59c7,-23 21,-49 31,-58c18,-16 18,-17 -1,-42l-20,-26l22,-17c34,-28 68,-33 99,-14c16,9 45,16 67,15c37,0 38,0 16,-16c-25,-17 -103,-171 -103,-202c0,-24 16,-36 23,-18c5,14 137,87 156,87c15,0 14,-63 -1,-82c-7,-8 -38,-29 -68,-46c-30,-17 -82,-58 -115,-91l-59,-61l61,0c33,0 79,7 102,15c40,14 41,14 41,-8c0,-13 4,-27 10,-33c11,-11 -59,-88 -185,-203c-79,-72 -79,-73 -30,-46c74,41 217,141 245,170c33,35 39,31 29,-16c-11,-49 -44,-116 -72,-146c-11,-13 -18,-26 -14,-29c3,-3 44,34 91,82c84,85 106,92 70,23c-8,-17 -13,-33 -11,-36c12,-12 84,36 142,93l63,63l6,-32c5,-22 22,-44 56,-71l49,-38l-35,-50c-34,-50 -42,-82 -24,-93c12,-8 72,18 89,38c7,10 26,17 40,17c19,0 37,11 59,35l31,36l83,-3c68,-2 83,-6 86,-20c2,-11 -2,-15 -15,-12c-10,2 -29,-4 -42,-15c-19,-14 -24,-29 -25,-62c-1,-38 2,-44 21,-47c18,-3 63,14 126,46c4,2 7,-68 8,-155c0,-156 9,-256 22,-270c13,-12 55,38 64,76c8,35 10,36 62,41c60,6 91,33 91,77c0,22 2,24 15,13c19,-16 19,-16 -5,120c-12,62 -19,114 -17,116c2,2 25,-5 52,-15c56,-21 69,-44 62,-112c-3,-34 -13,-57 -36,-85c-18,-22 -61,-100 -96,-174c-111,-237 -173,-448 -212,-720c-23,-162 -23,-704 0,-1064l16,-249l-41,-60c-56,-82 -115,-211 -138,-303c-56,-219 -27,-430 102,-743c90,-219 87,-192 43,-371c-60,-247 -57,-387 10,-520l26,-51l-34,-42c-47,-57 -64,-94 -83,-174c-19,-82 -13,-215 15,-341l19,-83l-28,-14c-42,-21 -77,-68 -101,-136c-18,-49 -29,-64 -57,-78l-35,-18l2,-84c3,-169 41,-361 94,-481l25,-56l-42,-41c-52,-51 -101,-132 -132,-215l-23,-63l30,-29c28,-26 30,-33 24,-74c-11,-73 -44,-148 -94,-213c-36,-47 -49,-74 -54,-112c-7,-47 -26,-82 -83,-152l-26,-32l42,-21c37,-19 49,-20 99,-12c31,6 57,9 59,7c1,-1 -2,-13 -7,-26c-8,-21 -4,-29 32,-61l42,-36l-45,-12c-99,-26 -115,-64 -53,-125c39,-38 111,-65 174,-65c20,0 76,7 125,16c49,8 101,13 115,10c14,-3 86,-27 160,-54c172,-64 258,-78 393,-62c95,11 107,10 164,-9c41,-14 87,-21 139,-21c44,0 97,-7 122,-16c50,-17 96,-11 113,15c10,16 15,16 97,0c118,-24 217,-33 225,-21c3,6 27,4 63,-4c32,-7 162,-23 288,-34c252,-23 365,-44 513,-95c209,-72 378,-101 527,-92c52,3 162,22 260,46c102,24 218,44 290,50c155,14 238,35 443,117c92,36 187,72 212,80c66,20 160,18 222,-6c31,-12 77,-20 111,-20c51,0 62,4 87,28c68,69 66,226 -8,414c-67,174 -270,378 -642,646c-226,163 -310,230 -321,260c-5,13 -9,41 -9,62c0,66 -37,225 -73,314l-34,86l17,74c48,198 51,513 10,841c-21,163 -21,182 -9,467c18,435 5,631 -56,834c-38,125 -73,299 -87,428c-9,93 -9,143 1,245c12,128 12,129 -13,205c-44,130 -110,246 -254,444c-63,87 -82,120 -82,146c0,51 -36,178 -73,258c-44,95 -111,202 -266,423c-70,99 -134,192 -144,207c-9,16 -24,40 -34,54l-16,26l35,-7c31,-6 38,-3 51,17c9,12 19,49 22,80l7,57l-36,22c-30,18 -36,26 -36,55c0,26 -10,45 -40,78c-46,50 -106,79 -200,97c-36,7 -79,23 -95,35c-17,13 -66,39 -109,59c-75,34 -78,36 -62,54c68,75 113,358 123,766c6,259 6,261 59,385c49,117 134,463 134,546c0,19 -9,52 -19,72c-11,20 -24,60 -30,87c-19,82 -66,165 -151,263c-113,131 -185,283 -283,602c-55,175 -56,185 -37,185c10,0 15,-10 15,-28c-1,-26 0,-27 12,-11c7,10 13,24 13,32c0,7 5,10 12,6c8,-5 9,3 5,30c-6,39 -1,66 13,66c5,0 11,-8 13,-17c2,-10 3,-5 2,10c-1,21 6,33 27,48c35,25 53,58 72,135c8,32 22,79 31,104c12,31 15,62 11,100c-2,30 -9,107 -15,171c-12,132 -18,154 -58,196c-15,16 -47,55 -70,86c-48,64 -82,90 -120,90c-15,0 -60,17 -100,38c-45,24 -88,39 -108,39c-25,0 -49,11 -82,36c-27,21 -66,45 -88,55c-44,21 -129,24 -160,7z"/>
  </g>
 </g>
</svg>