<svg width="700" height="700" xmlns="http://www.w3.org/2000/svg" xmlns:xlink="http://www.w3.org/1999/xlink">
 <defs>
  <symbol id="o">
   <path id="svg_1" d="m31.266,-1.875c-1.6172,0.84375 -3.2969,1.4766 -5.0469,1.8906c-1.7422,0.42578 -3.5586,0.64062 -5.4531,0.64062c-5.668,0 -10.156,-1.582 -13.469,-4.75c-3.3125,-3.1641 -4.9688,-7.4609 -4.9688,-12.891c0,-5.4375 1.6562,-9.7383 4.9688,-12.906c3.3125,-3.1641 7.8008,-4.75 13.469,-4.75c1.8945,0 3.7109,0.21484 5.4531,0.64062c1.75,0.42969 3.4297,1.0586 5.0469,1.8906l0,7.0469c-1.625,-1.1133 -3.2305,-1.9258 -4.8125,-2.4375c-1.5742,-0.51953 -3.2344,-0.78125 -4.9844,-0.78125c-3.1367,0 -5.6016,1.0078 -7.3906,3.0156c-1.793,2 -2.6875,4.7617 -2.6875,8.2812c0,3.5117 0.89453,6.2734 2.6875,8.2812c1.7891,2 4.2539,3 7.3906,3c1.75,0 3.4102,-0.25391 4.9844,-0.76562c1.582,-0.51953 3.1875,-1.332 4.8125,-2.4375l0,7.03153z"/>
  </symbol>
  <symbol id="i">
   <path id="svg_2" d="m22.875,-18.578c-0.71094,-0.33203 -1.418,-0.57812 -2.125,-0.73438c-0.71094,-0.15625 -1.418,-0.23438 -2.125,-0.23438c-2.1055,0 -3.7266,0.67188 -4.8594,2.0156c-1.125,1.3438 -1.6875,3.2656 -1.6875,5.7656l0,11.766l-8.1562,0l0,-25.531l8.1562,0l0,4.2031c1.0508,-1.6758 2.2539,-2.8945 3.6094,-3.6562c1.3633,-0.76953 2.9922,-1.1562 4.8906,-1.1562c0.26953,0 0.56641,0.011719 0.89062,0.03125c0.32031,0.023437 0.78516,0.074219 1.3906,0.15625l0.01568,7.37436z"/>
  </symbol>
  <symbol id="b">
   <path id="svg_3" d="m29.391,-12.828l0,2.3281l-19.062,0c0.19531,1.9062 0.88281,3.3398 2.0625,4.2969c1.1875,0.96094 2.8438,1.4375 4.9688,1.4375c1.7188,0 3.4766,-0.25391 5.2812,-0.76562c1.8008,-0.50781 3.6484,-1.2812 5.5469,-2.3125l0,6.2969c-1.9297,0.73047 -3.8594,1.2773 -5.7969,1.6406c-1.9297,0.375 -3.8555,0.5625 -5.7812,0.5625c-4.6172,0 -8.2031,-1.1719 -10.766,-3.5156s-3.8438,-5.6328 -3.8438,-9.875c0,-4.1641 1.2539,-7.4414 3.7656,-9.8281c2.5195,-2.3828 5.9844,-3.5781 10.391,-3.5781c4.0078,0 7.2188,1.2109 9.625,3.625c2.4062,2.418 3.6094,5.6484 3.6094,9.6875l-0.0005,-0.00008zm-8.375,-2.7188c0,-1.5391 -0.45312,-2.7852 -1.3594,-3.7344c-0.90625,-0.95703 -2.0898,-1.4375 -3.5469,-1.4375c-1.5859,0 -2.8711,0.44922 -3.8594,1.3438c-0.98047,0.88672 -1.5898,2.1641 -1.8281,3.8281l10.5938,0z"/>
  </symbol>
  <symbol id="h">
   <path id="svg_4" d="m15.359,-11.484c-1.6992,0 -2.9805,0.29297 -3.8438,0.875c-0.85547,0.57422 -1.2812,1.4219 -1.2812,2.5469c0,1.0312 0.34375,1.8398 1.0312,2.4219c0.69531,0.58594 1.6602,0.875 2.8906,0.875c1.5312,0 2.8164,-0.54688 3.8594,-1.6406c1.0508,-1.1016 1.5781,-2.4844 1.5781,-4.1406l0,-0.9375l-4.2343,-0.0001zm12.469,-3.0781l0,14.562l-8.2344,0l0,-3.7812c-1.0938,1.5547 -2.3242,2.6836 -3.6875,3.3906c-1.3672,0.69531 -3.0273,1.0469 -4.9844,1.0469c-2.6484,0 -4.7969,-0.76953 -6.4531,-2.3125c-1.6484,-1.5391 -2.4688,-3.5391 -2.4688,-6c0,-2.9883 1.0312,-5.1797 3.0938,-6.5781c2.0625,-1.4062 5.2969,-2.1094 9.7031,-2.1094l4.7969,0l0,-0.64062c0,-1.2891 -0.51172,-2.2344 -1.5312,-2.8281c-1.0117,-0.60156 -2.5938,-0.90625 -4.75,-0.90625c-1.75,0 -3.3828,0.17969 -4.8906,0.53125c-1.5,0.34375 -2.8984,0.86719 -4.1875,1.5625l0,-6.2188c1.75,-0.42578 3.5039,-0.75 5.2656,-0.96875c1.7578,-0.21875 3.5234,-0.32812 5.2969,-0.32812c4.5938,0 7.9102,0.91406 9.9531,2.7344c2.0508,1.8125 3.0781,4.7617 3.0781,8.8438l0,0.00039z"/>
  </symbol>
  <symbol id="g">
   <path id="svg_5" d="m12.828,-32.766l0,7.2344l8.4062,0l0,5.8438l-8.4062,0l0,10.828c0,1.1797 0.23438,1.9805 0.70312,2.4062c0.47656,0.41797 1.4141,0.625 2.8125,0.625l4.1875,0l0,5.8281l-7,0c-3.2188,0 -5.5,-0.67188 -6.8438,-2.0156s-2.0156,-3.625 -2.0156,-6.8438l0,-10.828l-4.0625,0l0,-5.8438l4.0625,0l0,-7.2344l8.15628,0.0001z"/>
  </symbol>
  <symbol id="f">
   <path id="svg_6" d="m21.281,-21.781l0,-13.672l8.2031,0l0,35.453l-8.2031,0l0,-3.6875c-1.125,1.5 -2.3672,2.6016 -3.7188,3.2969c-1.3438,0.69531 -2.9062,1.0469 -4.6875,1.0469c-3.1484,0 -5.7305,-1.25 -7.75,-3.75c-2.0234,-2.5 -3.0312,-5.7109 -3.0312,-9.6406c0,-3.9375 1.0078,-7.1562 3.0312,-9.6562c2.0195,-2.5 4.6016,-3.75 7.75,-3.75c1.7578,0 3.3164,0.35547 4.6719,1.0625c1.3633,0.71094 2.6094,1.8086 3.7344,3.2969l0,0.0001zm-5.375,16.516c1.75,0 3.082,-0.63281 4,-1.9062c0.91406,-1.2812 1.375,-3.1328 1.375,-5.5625c0,-2.4375 -0.46094,-4.2891 -1.375,-5.5625c-0.91797,-1.2812 -2.25,-1.9219 -4,-1.9219c-1.7305,0 -3.0586,0.64062 -3.9844,1.9219c-0.91797,1.2734 -1.375,3.125 -1.375,5.5625c0,2.4297 0.45703,4.2812 1.375,5.5625c0.92578,1.2734 2.2539,1.9062 3.9844,1.9062z"/>
  </symbol>
  <symbol id="e">
   <path id="svg_7" d="m17.5,-5.2656c1.75,0 3.082,-0.63281 4,-1.9062c0.91406,-1.2812 1.375,-3.1328 1.375,-5.5625c0,-2.4375 -0.46094,-4.2891 -1.375,-5.5625c-0.91797,-1.2812 -2.25,-1.9219 -4,-1.9219s-3.0938,0.64844 -4.0312,1.9375c-0.92969,1.2812 -1.3906,3.1328 -1.3906,5.5469c0,2.418 0.46094,4.2656 1.3906,5.5469c0.9375,1.2812 2.2812,1.9219 4.0312,1.9219l0,-0.0001zm-5.4219,-16.516c1.125,-1.4883 2.3672,-2.5859 3.7344,-3.2969c1.3633,-0.70703 2.9375,-1.0625 4.7188,-1.0625c3.1445,0 5.7266,1.25 7.75,3.75c2.0195,2.5 3.0312,5.7188 3.0312,9.6562c0,3.9297 -1.0117,7.1406 -3.0312,9.6406c-2.0234,2.5 -4.6055,3.75 -7.75,3.75c-1.7812,0 -3.3555,-0.35156 -4.7188,-1.0469c-1.3672,-0.70703 -2.6094,-1.8047 -3.7344,-3.2969l0,3.6875l-8.1562,0l0,-35.453l8.1562,0l0,13.6719z"/>
  </symbol>
  <symbol id="a">
   <path id="svg_8" d="m0.5625,-25.531l8.1719,0l6.8594,17.328l5.8281,-17.328l8.1562,0l-10.734,27.953c-1.0742,2.832 -2.3281,4.8164 -3.7656,5.9531c-1.4375,1.1328 -3.3359,1.7031 -5.6875,1.7031l-4.7188,0l0,-5.3594l2.5469,0c1.3828,0 2.3906,-0.22656 3.0156,-0.67188c0.63281,-0.4375 1.1289,-1.2266 1.4844,-2.3594l0.21875,-0.70312l-11.37535,-26.5154z"/>
  </symbol>
  <symbol id="d">
   <path id="svg_9" d="m4.2812,-34.031l8.7812,0l0,30.734c0,4.2266 -1.1523,7.3906 -3.4531,9.4844c-2.3047,2.1016 -5.7891,3.1562 -10.453,3.1562l-1.7812,0l0,-6.625l1.375,0c1.8203,0 3.1953,-0.51172 4.125,-1.5312c0.9375,-1.0234 1.4062,-2.5156 1.4062,-4.4844l-0.0001,-30.734z"/>
  </symbol>
  <symbol id="n">
   <path id="svg_10" d="m3.6406,-9.9375l0,-15.594l8.2031,0l0,2.5625c0,1.3867 -0.007812,3.125 -0.015625,5.2188c-0.011719,2.0859 -0.015625,3.4766 -0.015625,4.1719c0,2.0547 0.050781,3.5312 0.15625,4.4375c0.10156,0.89844 0.28516,1.5547 0.54688,1.9688c0.33203,0.53125 0.76562,0.94531 1.2969,1.2344c0.53906,0.28125 1.1602,0.42188 1.8594,0.42188c1.707,0 3.0469,-0.64844 4.0156,-1.9531c0.96875,-1.3125 1.4531,-3.1289 1.4531,-5.4531l0,-12.609l8.1719,0l0,25.531l-8.1719,0l0,-3.6875c-1.2305,1.4922 -2.5312,2.5898 -3.9062,3.2969c-1.375,0.69531 -2.8906,1.0469 -4.5469,1.0469c-2.9492,0 -5.1953,-0.89844 -6.7344,-2.7031c-1.543,-1.8125 -2.3125,-4.4414 -2.3125,-7.8906l0.00002,-0.00018z"/>
  </symbol>
  <symbol id="c">
   <path id="svg_11" d="m3.9219,-25.531l8.1562,0l0,25.531l-8.1562,0l0,-25.531zm0,-9.9219l8.1562,0l0,6.6406l-8.1562,0l0,-6.6406z"/>
  </symbol>
  <symbol id="m">
   <path id="svg_12" d="m24.547,-24.719l0,6.6406c-1.1172,-0.75781 -2.2305,-1.3203 -3.3438,-1.6875c-1.1172,-0.36328 -2.2734,-0.54688 -3.4688,-0.54688c-2.2812,0 -4.0586,0.66797 -5.3281,2c-1.2734,1.3359 -1.9062,3.1953 -1.9062,5.5781c0,2.3867 0.63281,4.2461 1.9062,5.5781c1.2695,1.3242 3.0469,1.9844 5.3281,1.9844c1.2695,0 2.4766,-0.1875 3.625,-0.5625c1.1445,-0.38281 2.207,-0.94531 3.1875,-1.6875l0,6.6719c-1.2812,0.46875 -2.5781,0.81641 -3.8906,1.0469c-1.3125,0.23828 -2.6328,0.35938 -3.9531,0.35938c-4.6055,0 -8.2109,-1.1758 -10.812,-3.5312c-2.5938,-2.3633 -3.8906,-5.6484 -3.8906,-9.8594c0,-4.207 1.2969,-7.4922 3.8906,-9.8594c2.6016,-2.3633 6.207,-3.5469 10.812,-3.5469c1.332,0 2.6484,0.12109 3.9531,0.35938c1.3008,0.23047 2.5977,0.58594 3.8906,1.0625l0.0001,0.00002z"/>
  </symbol>
  <symbol id="l">
   <path id="svg_13" d="m4.2812,-34.031l23.688,0l0,6.6406l-14.906,0l0,6.3281l14.016,0l0,6.6406l-14.016,0l0,14.422l-8.7812,0l-0.0008,-34.0313z"/>
  </symbol>
  <symbol id="k">
   <path id="svg_14" d="m23.859,-24.719l0,6.1875c-1.75,-0.72656 -3.4375,-1.2734 -5.0625,-1.6406c-1.625,-0.36328 -3.1562,-0.54688 -4.5938,-0.54688c-1.5547,0 -2.7109,0.19922 -3.4688,0.59375c-0.75,0.38672 -1.125,0.98047 -1.125,1.7812c0,0.65625 0.28516,1.1641 0.85938,1.5156c0.57031,0.34375 1.5938,0.60156 3.0625,0.76562l1.4375,0.20312c4.1758,0.53125 6.9844,1.4062 8.4219,2.625c1.4453,1.2109 2.1719,3.1172 2.1719,5.7188c0,2.7188 -1.0078,4.7617 -3.0156,6.125c-2,1.3672 -4.9922,2.0469 -8.9688,2.0469c-1.6875,0 -3.4336,-0.13672 -5.2344,-0.40625c-1.793,-0.25781 -3.6406,-0.65625 -5.5469,-1.1875l0,-6.2031c1.625,0.79297 3.2891,1.3867 5,1.7812c1.7188,0.39844 3.457,0.59375 5.2188,0.59375c1.5938,0 2.7891,-0.21875 3.5938,-0.65625c0.8125,-0.4375 1.2188,-1.0938 1.2188,-1.9688c0,-0.72656 -0.28125,-1.2695 -0.84375,-1.625c-0.55469,-0.35156 -1.6562,-0.62891 -3.3125,-0.82812l-1.4375,-0.1875c-3.625,-0.44531 -6.168,-1.2852 -7.625,-2.5156c-1.4609,-1.2383 -2.1875,-3.1094 -2.1875,-5.6094c0,-2.707 0.92188,-4.7109 2.7656,-6.0156c1.8516,-1.3125 4.6953,-1.9688 8.5312,-1.9688c1.5,0 3.0781,0.11719 4.7344,0.34375c1.6562,0.23047 3.457,0.58984 5.4062,1.0781l0.00007,0.00011z"/>
  </symbol>
  <symbol id="j">
   <path id="svg_15" d="m29.578,-15.547l0,15.547l-8.2031,0l0,-11.844c0,-2.2383 -0.054688,-3.7734 -0.15625,-4.6094c-0.09375,-0.83203 -0.26172,-1.4453 -0.5,-1.8438c-0.32422,-0.53125 -0.76172,-0.94141 -1.3125,-1.2344c-0.54297,-0.30078 -1.1641,-0.45312 -1.8594,-0.45312c-1.6992,0 -3.0391,0.65625 -4.0156,1.9688c-0.96875,1.3125 -1.4531,3.1328 -1.4531,5.4531l0,12.562l-8.1562,0l0,-35.453l8.1562,0l0,13.672c1.2266,-1.4883 2.5352,-2.5859 3.9219,-3.2969c1.3828,-0.70703 2.9102,-1.0625 4.5781,-1.0625c2.9453,0 5.1797,0.90625 6.7031,2.7188c1.5312,1.8047 2.2969,4.4297 2.2969,7.875l-0.00005,0.00042z"/>
  </symbol>
 </defs>
 <g>
  <title>background</title>
  <rect fill="none" id="canvas_background" height="514" width="514" y="-1" x="-1"/>
 </g>
 <g>
  <title>Layer 1</title>
  <g id="svg_16">
   <path fill="#6fc9d1" id="svg_17" d="m620.51,42.004l-19.723,-10.789l-10.789,-19.73c-2.1016,-3.8477 -5.5234,-6.8047 -9.6289,-8.3359c-4.1055,-1.5273 -8.6289,-1.5273 -12.734,0c-4.1055,1.5312 -7.5273,4.4883 -9.6289,8.3359l-10.789,19.73l-19.73,10.789c-3.8477,2.1016 -6.8125,5.5195 -8.3438,9.625c-1.5312,4.1094 -1.5312,8.6328 0,12.742c1.5312,4.1055 4.4961,7.5234 8.3438,9.625l19.73,10.789l10.781,19.723l-0.003906,0c2.1055,3.8477 5.5234,6.8086 9.6328,8.3398s8.6328,1.5312 12.742,0c4.1055,-1.5312 7.5273,-4.4922 9.6289,-8.3398l10.789,-19.723l19.73,-10.789c3.8477,-2.1016 6.8125,-5.5195 8.3438,-9.625c1.5312,-4.1094 1.5312,-8.6328 0,-12.742c-1.5312,-4.1055 -4.4961,-7.5234 -8.3438,-9.625l-0.006994,0zm-31.07,27.719c-1.5781,0.85938 -2.875,2.1562 -3.7344,3.7344l-11.328,22.102l-12.133,-22.129l-0.003907,0c-0.85938,-1.5781 -2.1523,-2.875 -3.7305,-3.7344l-22.121,-11.34l22.121,-12.133c1.5781,-0.85938 2.8711,-2.1562 3.7305,-3.7344l11.602,-21.672l11.863,21.672c0.85938,1.5781 2.1562,2.875 3.7344,3.7344l22.121,11.34l-22.121093,12.16z"/>
   <path fill="#6fc9d1" id="svg_18" d="m79.484,400.66l19.73,10.789l10.781,19.723l-0.003906,0c2.1055,3.8477 5.5234,6.8086 9.6328,8.3398s8.6328,1.5312 12.742,0c4.1055,-1.5312 7.5273,-4.4922 9.6289,-8.3398l10.789,-19.723l19.723,-10.781c3.8477,-2.1016 6.8086,-5.5195 8.3398,-9.6289s1.5312,-8.6328 0,-12.742s-4.4922,-7.5273 -8.3398,-9.6328l-19.723,-10.789l-10.789,-19.73c-2.1016,-3.8438 -5.5234,-6.8008 -9.6289,-8.332c-4.1055,-1.5312 -8.6289,-1.5312 -12.734,0c-4.1055,1.5312 -7.5273,4.4883 -9.6289,8.332l-10.789,19.73l-19.723,10.781c-3.8477,2.1016 -6.8086,5.5234 -8.3398,9.6328s-1.5312,8.6289 0,12.738s4.4922,7.5273 8.3398,9.6328l-0.006994,0.0001zm31.09,-27.73l-0.003907,0c1.5781,-0.85938 2.875,-2.1562 3.7344,-3.7305l11.602,-21.672l11.863,21.672c0.86328,1.5742 2.1562,2.8711 3.7344,3.7305l22.121,11.359l-22.121,12.133c-1.5781,0.86328 -2.8711,2.1602 -3.7344,3.7344l-11.395,22.055l-12.133,-22.121l-0.003907,0c-0.85938,-1.5742 -2.1562,-2.8711 -3.7305,-3.7305l-22.055,-11.324l22.121914,-12.1059z"/>
   <path fill="#6fc9d1" id="svg_19" d="m106.56,193.77l15.297,8.3984l8.3984,15.309l0.003906,0c1.8945,3.4688 4.9805,6.1406 8.6875,7.5234c3.707,1.3828 7.7891,1.3828 11.496,0c3.707,-1.3828 6.793,-4.0547 8.6914,-7.5234l8.3984,-15.309l15.277,-8.3984l0.003906,0c3.4766,-1.8945 6.1484,-4.9805 7.5352,-8.6914c1.3828,-3.707 1.3828,-7.7891 0,-11.5c-1.3867,-3.707 -4.0586,-6.793 -7.5352,-8.6875l-15.297,-8.3984l-8.3984,-15.309l-0.003907,0c-1.8945,-3.4727 -4.9805,-6.1445 -8.6875,-7.5273c-3.7109,-1.3789 -7.7891,-1.3789 -11.496,0c-3.7109,1.3828 -6.793,4.0547 -8.6914,7.5273l-8.3984,15.309l-15.277,8.3984l-0.003906,0c-3.4766,1.8945 -6.1523,4.9805 -7.5352,8.6875c-1.3828,3.7109 -1.3828,7.793 0,11.5c1.3828,3.7109 4.0586,6.7969 7.5352,8.6914l0.000001,0zm26.656,-22.176c1.5742,-0.86328 2.8711,-2.1602 3.7344,-3.7344l7.7188,-14.141l7.7461,14.16c0.86328,1.5742 2.1562,2.8711 3.7344,3.7305l14.121,7.7188l-14.148,7.7383l-0.003906,0c-1.5742,0.86328 -2.8711,2.1562 -3.7305,3.7344l-7.7188,14.141l-7.7461,-14.16c-0.86328,-1.5742 -2.1602,-2.8711 -3.7344,-3.7344l-14.121,-7.7188l14.148006,-7.7344z"/>
   <path fill="#6fc9d1" id="svg_20" d="m621.44,202.23l-15.297,-8.3984l-8.3984,-15.309l-0.003906,0c-1.8945,-3.4688 -4.9805,-6.1406 -8.6875,-7.5234c-3.707,-1.3828 -7.7891,-1.3828 -11.496,0c-3.707,1.3828 -6.793,4.0547 -8.6914,7.5234l-8.3984,15.309l-15.277,8.3984l-0.003906,0c-3.4766,1.8945 -6.1484,4.9805 -7.5352,8.6914c-1.3828,3.707 -1.3828,7.7891 0,11.5c1.3867,3.707 4.0586,6.793 7.5352,8.6875l15.297,8.3984l8.3984,15.309l0.003907,0c1.8945,3.4727 4.9805,6.1445 8.6875,7.5273c3.7109,1.3789 7.7891,1.3789 11.496,0c3.7109,-1.3828 6.793,-4.0547 8.6914,-7.5273l8.3984,-15.309l15.277,-8.3984l0.003906,0c3.4766,-1.8945 6.1523,-4.9805 7.5352,-8.6875c1.3828,-3.7109 1.3828,-7.793 0,-11.5c-1.3828,-3.7109 -4.0586,-6.7969 -7.5352,-8.6914l-0.000001,0zm-26.656,22.176c-1.5742,0.86328 -2.8711,2.1602 -3.7344,3.7344l-7.7188,14.141l-7.7461,-14.16c-0.86328,-1.5742 -2.1562,-2.8711 -3.7344,-3.7305l-14.121,-7.7188l14.148,-7.7383l0.003906,0c1.5742,-0.86328 2.8711,-2.1562 3.7305,-3.7344l7.7188,-14.141l7.7461,14.16c0.86328,1.5742 2.1602,2.8711 3.7344,3.7344l14.121,7.7188l-14.148006,7.7344z"/>
   <path fill="#6fc9d1" id="svg_21" d="m200.67,123.33l9.332,0l0,121.34l-28,0c-10.004,0 -19.246,5.3359 -24.25,14c-5,8.6602 -5,19.336 0,28c5.0039,8.6602 14.246,14 24.25,14l0,9.332c0.023438,26.91 10.602,52.738 29.461,71.934c18.863,19.199 44.5,30.23 71.406,30.734c-1.8672,30.23 -7.4648,119.61 -7.4648,119.61l-0.003906,0c-0.47656,7.7109 2.2539,15.273 7.543,20.902c5.2891,5.6289 12.668,8.8203 20.391,8.8242l93.336,0c7.7266,-0.003906 15.109,-3.1992 20.398,-8.832c5.2891,-5.6328 8.0156,-13.199 7.5352,-20.914c0,0 -5.6016,-89.375 -7.4648,-119.61l-0.003907,0c26.906,-0.5 52.539,-11.531 71.398,-30.727c18.859,-19.191 29.438,-45.016 29.469,-71.922l0,-9.332c10.004,0 19.246,-5.3398 24.25,-14c5,-8.6641 5,-19.34 0,-28c-5.0039,-8.6641 -14.246,-14 -24.25,-14l-28,0l0,-196c-0.015625,-12.375 -4.9375,-24.234 -13.684,-32.984c-8.75,-8.7461 -20.609,-13.668 -32.984,-13.684l-186.66,0c-12.375,0.015625 -24.234,4.9375 -32.984,13.684c-8.7461,8.75 -13.668,20.609 -13.684,32.984l0,56l-9.332,0c-5.1562,0 -9.3359,4.1758 -9.3359,9.332s4.1797,9.332 9.3359,9.332l-0.003787,-0.0032zm298.66,186.67c-0.023437,22.27 -8.8828,43.621 -24.629,59.371c-15.746,15.746 -37.098,24.605 -59.371,24.629l-37.332,0c-5.1562,0 -9.332,4.1797 -9.332,9.332c0,5.1562 4.1758,9.3359 9.332,9.3359l20.887,0c0.53125,15.812 2.6055,48.973 7.0938,120.75c0.16016,2.5703 -0.75,5.0938 -2.5117,6.9688c-1.7656,1.8789 -4.2266,2.9414 -6.8008,2.9414l-93.336,0c-2.5781,0.007813 -5.043,-1.0547 -6.8125,-2.9336c-1.7656,-1.8789 -2.6797,-4.4023 -2.5195,-6.9766c4.4883,-71.781 6.5352,-104.95 7.0938,-120.75l20.906,0c5.1562,0 9.332,-4.1797 9.332,-9.3359c0,-5.1523 -4.1758,-9.332 -9.332,-9.332l-37.332,0c-22.273,-0.023438 -43.625,-8.8828 -59.371,-24.629c-15.746,-15.75 -24.605,-37.102 -24.629,-59.371l0,-9.332l18.668,0l0,9.332l-0.003907,0c0.023438,17.32 6.9141,33.926 19.16,46.172c12.25,12.25 28.855,19.141 46.176,19.16c5.1523,0 9.332,-4.1758 9.332,-9.332s-4.1797,-9.332 -9.332,-9.332c-12.375,-0.015625 -24.234,-4.9375 -32.984,-13.688c-8.7461,-8.7461 -13.668,-20.609 -13.684,-32.98l0,-9.332l261.33,0l0.001807,9.332zm-18.668,-46.668l37.336,0c5.1562,0 9.332,4.1797 9.332,9.3359c0,5.1523 -4.1758,9.332 -9.332,9.332l-336,0c-5.1562,0 -9.332,-4.1797 -9.332,-9.332c0,-5.1562 4.1758,-9.3359 9.332,-9.3359l298.67,0l-0.006,0zm-252,-214.66c0,-7.4258 2.9492,-14.551 8.1992,-19.801s12.375,-8.1992 19.801,-8.1992l186.66,0c7.4258,0 14.551,2.9492 19.801,8.1992s8.1992,12.375 8.1992,19.801l-214.66,0c-5.1562,0 -9.3359,4.1758 -9.3359,9.332s4.1797,9.332 9.3359,9.332l214.66,0l0,177.34l-242.66,0l0,-121.34l20.383,0c2.9609,8.3711 9.7148,14.844 18.203,17.441c8.4883,2.5977 17.707,1.0156 24.848,-4.2617c7.1367,-5.2812 11.348,-13.633 11.348,-22.512s-4.2109,-17.23 -11.348,-22.512c-7.1406,-5.2773 -16.359,-6.8594 -24.848,-4.2617c-8.4883,2.5977 -15.242,9.0703 -18.203,17.441l-20.383,0l-0.0004,-55.9986zm37.332,65.332c0,-3.7734 2.2734,-7.1797 5.7617,-8.6211c3.4883,-1.4453 7.5039,-0.64844 10.172,2.0195c2.668,2.6719 3.4688,6.6875 2.0234,10.172c-1.4453,3.4883 -4.8477,5.7617 -8.625,5.7617c-5.1523,0 -9.332,-4.1758 -9.332,-9.332l-0.0001,-0.0001z"/>
   <use fill="#6fc9d1" id="svg_22" xlink:href="#o" y="702" x="70"/>
   <use fill="#6fc9d1" id="svg_23" xlink:href="#i" y="702" x="104.25"/>
   <use fill="#6fc9d1" id="svg_24" xlink:href="#b" y="702" x="127.261719"/>
   <use fill="#6fc9d1" id="svg_25" xlink:href="#h" y="702" x="158.914062"/>
   <use fill="#6fc9d1" id="svg_26" xlink:href="#g" y="702" x="190.402344"/>
   <use fill="#6fc9d1" id="svg_27" xlink:href="#b" y="702" x="212.710937"/>
   <use fill="#6fc9d1" id="svg_28" xlink:href="#f" y="702" x="244.363281"/>
   <use fill="#6fc9d1" id="svg_29" xlink:href="#e" y="702" x="294.015625"/>
   <use fill="#6fc9d1" id="svg_30" xlink:href="#a" y="702" x="327.417969"/>
   <use fill="#6fc9d1" id="svg_31" xlink:href="#d" y="702" x="374.085938"/>
   <use fill="#6fc9d1" id="svg_32" xlink:href="#n" y="702" x="391.449219"/>
   <use fill="#6fc9d1" id="svg_33" xlink:href="#c" y="702" x="424.671875"/>
   <use fill="#6fc9d1" id="svg_34" xlink:href="#m" y="702" x="440.667969"/>
   <use fill="#6fc9d1" id="svg_35" xlink:href="#a" y="702" x="468.328125"/>
   <use fill="#6fc9d1" id="svg_36" xlink:href="#l" y="702" x="514.996094"/>
   <use fill="#6fc9d1" id="svg_37" xlink:href="#c" y="702" x="546.875"/>
   <use fill="#6fc9d1" id="svg_38" xlink:href="#k" y="702" x="562.871094"/>
   <use fill="#6fc9d1" id="svg_39" xlink:href="#j" y="702" x="590.648438"/>
  </g>
 </g>
</svg>