<svg width="700" height="700" xmlns="http://www.w3.org/2000/svg" xmlns:xlink="http://www.w3.org/1999/xlink">
 <defs>
  <symbol id="t">
   <path id="svg_1" d="m3.6562,-0.21875c-0.1875,0.09375 -0.38672,0.16797 -0.59375,0.21875c-0.19922,0.05078 -0.40625,0.07813 -0.625,0.07813c-0.66797,0 -1.1992,-0.17969 -1.5938,-0.54689c-0.38672,-0.375 -0.57812,-0.87891 -0.57812,-1.5156c0,-0.64453 0.19141,-1.1484 0.57812,-1.51559c0.39453,-0.375 0.92578,-0.5625 1.5938,-0.5625c0.21875,0 0.42578,0.02734 0.625,0.07812c0.20703,0.05469 0.40625,0.125 0.59375,0.21875l0,0.82812c-0.1875,-0.125 -0.375,-0.21875 -0.5625,-0.28125c-0.17969,-0.0625 -0.37109,-0.09375 -0.57812,-0.09375c-0.36719,0 -0.65625,0.12109 -0.875,0.35938c-0.21094,0.23047 -0.3125,0.55469 -0.3125,0.96875c0,0.40625 0.10156,0.73047 0.3125,0.96875c0.21875,0.23047 0.50781,0.34375 0.875,0.34375c0.20703,0 0.39844,-0.02344 0.57812,-0.07812c0.1875,-0.0625 0.375,-0.16016 0.5625,-0.29688l0,0.82808z"/>
  </symbol>
  <symbol id="b">
   <path id="svg_2" d="m2.6875,-2.1719c-0.08594,-0.03906 -0.16797,-0.07031 -0.25,-0.09375c-0.08594,-0.01953 -0.16797,-0.03125 -0.25,-0.03125c-0.25,0 -0.44531,0.08594 -0.57812,0.25c-0.125,0.15625 -0.1875,0.38281 -0.1875,0.67188l0,1.375l-0.96875,0l0,-2.9844l0.96875,0l0,0.48438c0.11328,-0.19531 0.25,-0.33594 0.40625,-0.42188c0.16406,-0.09375 0.35938,-0.14062 0.57812,-0.14062l0.10938,0c0.03906,0 0.09375,0.00781 0.15625,0.01563l0.01562,0.87501z"/>
  </symbol>
  <symbol id="a">
   <path id="svg_3" d="m3.4375,-1.5l0,0.26562l-2.2344,0c0.03125,0.23047 0.11328,0.40234 0.25,0.51562c0.13281,0.10547 0.32812,0.15625 0.57812,0.15625c0.20703,0 0.41406,-0.02344 0.625,-0.07812c0.20703,-0.0625 0.42188,-0.15625 0.64062,-0.28125l0,0.73438c-0.21875,0.09375 -0.44531,0.16406 -0.67188,0.20312c-0.23047,0.03906 -0.45312,0.0625 -0.67188,0.0625c-0.54297,0 -0.96484,-0.13281 -1.2656,-0.40625c-0.30469,-0.28125 -0.45312,-0.67189 -0.45312,-1.1719c0,-0.47656 0.14453,-0.85938 0.4375,-1.1406c0.30078,-0.28125 0.70703,-0.42188 1.2188,-0.42188c0.46875,0 0.84375,0.14062 1.125,0.42188s0.42188,0.66406 0.42188,1.1406l-0.00004,0.00003zm-0.96875,-0.32812c0,-0.17578 -0.05859,-0.31641 -0.17188,-0.42188c-0.10547,-0.11328 -0.24219,-0.17188 -0.40625,-0.17188c-0.1875,0 -0.33984,0.05469 -0.45312,0.15625c-0.11719,0.10547 -0.1875,0.25 -0.21875,0.4375l1.25,0.00001z"/>
  </symbol>
  <symbol id="f">
   <path id="svg_4" d="m1.7969,-1.3438c-0.19922,0 -0.35156,0.03906 -0.45312,0.10938c-0.09375,0.0625 -0.14062,0.16406 -0.14062,0.29688c0,0.11719 0.03516,0.21094 0.10938,0.28125c0.08203,0.0625 0.19531,0.09375 0.34375,0.09375c0.17578,0 0.32812,-0.0625 0.45312,-0.1875s0.1875,-0.28516 0.1875,-0.48438l0,-0.10938l-0.50001,0zm1.4688,-0.35938l0,1.7031l-0.96875,0l0,-0.4375c-0.125,0.17969 -0.27344,0.30859 -0.4375,0.39062c-0.15625,0.08203 -0.35156,0.125 -0.57812,0.125c-0.3125,0 -0.57031,-0.08594 -0.76562,-0.26562c-0.1875,-0.1875 -0.28125,-0.42188 -0.28125,-0.70312c0,-0.35156 0.11719,-0.61328 0.35938,-0.78125c0.23828,-0.16406 0.61719,-0.25 1.1406,-0.25l0.5625,0l0,-0.0625c0,-0.15625 -0.0625,-0.26562 -0.1875,-0.32812c-0.11719,-0.07031 -0.29688,-0.10938 -0.54688,-0.10938c-0.21094,0 -0.40234,0.02344 -0.57812,0.0625c-0.17969,0.04297 -0.33984,0.10156 -0.48438,0.17188l0,-0.71875c0.19531,-0.05078 0.39844,-0.08594 0.60938,-0.10938c0.20703,-0.03125 0.41406,-0.04688 0.625,-0.04688c0.53906,0 0.92969,0.10938 1.1719,0.32812c0.23828,0.21094 0.35938,0.5547 0.35938,1.03121l-0.00002,0.00007z"/>
  </symbol>
  <symbol id="d">
   <path id="svg_5" d="m1.5,-3.8438l0,0.85938l0.98438,0l0,0.67188l-0.98438,0l0,1.2812c0,0.13672 0.02344,0.23047 0.07813,0.28125c0.0625,0.04297 0.17578,0.0625 0.34375,0.0625l0.48438,0l0,0.6875l-0.8125,0c-0.38672,0 -0.65625,-0.07812 -0.8125,-0.23438s-0.23438,-0.42188 -0.23438,-0.79688l0,-1.2812l-0.46875,0l0,-0.67188l0.46875,0l0,-0.85938l0.95312,0.00001z"/>
  </symbol>
  <symbol id="k">
   <path id="svg_6" d="m2.5,-2.5469l0,-1.6094l0.95312,0l0,4.1562l-0.95312,0l0,-0.4375c-0.13672,0.17969 -0.28125,0.30859 -0.4375,0.39062c-0.15625,0.08203 -0.33984,0.125 -0.54688,0.125c-0.375,0 -0.68359,-0.14453 -0.92188,-0.4375c-0.23047,-0.28906 -0.34375,-0.67188 -0.34375,-1.1406c0,-0.45703 0.11328,-0.83203 0.34375,-1.125c0.23828,-0.28906 0.54688,-0.4375 0.92188,-0.4375c0.19531,0 0.375,0.04297 0.53125,0.125c0.16406,0.08594 0.31641,0.21484 0.45312,0.39062l0.00001,0.00006zm-0.64062,1.9375c0.20703,0 0.36328,-0.07031 0.46875,-0.21875c0.11328,-0.15625 0.17188,-0.37891 0.17188,-0.67188c0,-0.28125 -0.05859,-0.49219 -0.17188,-0.64062c-0.10547,-0.15625 -0.26172,-0.23438 -0.46875,-0.23438c-0.19922,0 -0.35547,0.07812 -0.46875,0.23438c-0.10547,0.14844 -0.15625,0.35938 -0.15625,0.64062c0,0.29297 0.05078,0.51562 0.15625,0.67188c0.11328,0.14844 0.26953,0.21875 0.46875,0.21875z"/>
  </symbol>
  <symbol id="j">
   <path id="svg_7" d="m2.0469,-0.60938c0.20703,0 0.36328,-0.07031 0.46875,-0.21875c0.11328,-0.15625 0.17188,-0.37891 0.17188,-0.67188c0,-0.28125 -0.05859,-0.49219 -0.17188,-0.64062c-0.10547,-0.15625 -0.26172,-0.23438 -0.46875,-0.23438c-0.19922,0 -0.35547,0.07812 -0.46875,0.23438c-0.10547,0.14844 -0.15625,0.35938 -0.15625,0.64062c0,0.29297 0.05078,0.51562 0.15625,0.67188c0.11328,0.14844 0.26953,0.21875 0.46875,0.21875zm-0.625,-1.9375c0.125,-0.17578 0.26562,-0.30469 0.42188,-0.39062c0.16406,-0.08203 0.35156,-0.125 0.5625,-0.125c0.36328,0 0.66406,0.14844 0.90625,0.4375c0.23828,0.29297 0.35938,0.66797 0.35938,1.125c0,0.46875 -0.12109,0.85156 -0.35938,1.1406c-0.24219,0.29297 -0.54297,0.4375 -0.90625,0.4375c-0.21094,0 -0.39844,-0.04297 -0.5625,-0.125c-0.15625,-0.08203 -0.29688,-0.21094 -0.42188,-0.39062l0,0.4375l-0.96875,0l0,-4.1562l0.96875,0l0,1.60934z"/>
  </symbol>
  <symbol id="i">
   <path id="svg_8" d="m0.0625,-2.9844l0.95312,0l0.8125,2.0156l0.6875,-2.0156l0.95312,0l-1.2656,3.2656c-0.125,0.33203 -0.27344,0.56641 -0.4375,0.70312c-0.16797,0.13281 -0.39062,0.20312 -0.67188,0.20312l-0.54688,0l0,-0.64062l0.29688,0c0.16406,0 0.28516,-0.02734 0.35938,-0.07812c0.07031,-0.05469 0.12891,-0.14062 0.17188,-0.26562l0.03125,-0.09375l-1.34377,-3.09373z"/>
  </symbol>
  <symbol id="e">
   <path id="svg_9" d="m0.45312,-2.9844l0.96875,0l0,2.9844l-0.96875,0l0,-2.9844zm0,-1.1719l0.96875,0l0,0.78125l-0.96875,0l0,-0.78125z"/>
  </symbol>
  <symbol id="h">
   <path id="svg_10" d="m2.875,-2.8906l0,0.76562c-0.125,-0.08203 -0.25781,-0.14453 -0.39062,-0.1875c-0.13672,-0.03906 -0.27344,-0.0625 -0.40625,-0.0625c-0.27344,0 -0.48047,0.07813 -0.625,0.23438c-0.14844,0.15625 -0.21875,0.37109 -0.21875,0.64062c0,0.28125 0.07031,0.5 0.21875,0.65625c0.14453,0.15625 0.35156,0.23438 0.625,0.23438c0.14453,0 0.28516,-0.01953 0.42188,-0.0625c0.13281,-0.03906 0.25781,-0.10938 0.375,-0.20312l0,0.78125c-0.14844,0.0625 -0.29688,0.10156 -0.45312,0.125c-0.15625,0.03125 -0.3125,0.04688 -0.46875,0.04688c-0.54297,0 -0.96484,-0.13281 -1.2656,-0.40625c-0.30469,-0.28125 -0.45312,-0.67188 -0.45312,-1.1719c0,-0.48828 0.14844,-0.8672 0.45312,-1.1406c0.30078,-0.28125 0.72266,-0.42189 1.2656,-0.42189c0.15625,0 0.3125,0.01563 0.46875,0.04688c0.15625,0.02344 0.30469,0.0625 0.45312,0.125l-0.00001,0z"/>
  </symbol>
  <symbol id="c">
   <path id="svg_11" d="m1.875,-2.375c-0.21094,0 -0.37109,0.07812 -0.48438,0.23438c-0.10547,0.14844 -0.15625,0.35938 -0.15625,0.64062c0,0.29297 0.05078,0.51562 0.15625,0.67188c0.11328,0.14844 0.27344,0.21875 0.48438,0.21875c0.20703,0 0.36719,-0.07031 0.48438,-0.21875c0.11328,-0.15625 0.17188,-0.37891 0.17188,-0.67188c0,-0.28125 -0.05859,-0.49219 -0.17188,-0.64062c-0.11719,-0.15625 -0.27734,-0.23438 -0.48438,-0.23438zm0,-0.6875c0.51953,0 0.92188,0.14062 1.2031,0.42188c0.28906,0.27344 0.4375,0.65234 0.4375,1.1406c0,0.5 -0.14844,0.89062 -0.4375,1.1719c-0.28125,0.27344 -0.68359,0.40625 -1.2031,0.40625c-0.51172,0 -0.91406,-0.13281 -1.2031,-0.40625c-0.29297,-0.28125 -0.4375,-0.67188 -0.4375,-1.1719c0,-0.48828 0.14453,-0.86719 0.4375,-1.1406c0.28906,-0.28125 0.69141,-0.42188 1.2031,-0.42188z"/>
  </symbol>
  <symbol id="g">
   <path id="svg_12" d="m3.4688,-1.8281l0,1.8281l-0.96875,0l0,-1.3906c0,-0.25781 -0.00781,-0.4375 -0.01563,-0.53125c-0.01171,-0.10156 -0.03125,-0.17578 -0.0625,-0.21875c-0.03125,-0.0625 -0.08593,-0.10938 -0.15625,-0.14062c-0.0625,-0.03906 -0.13281,-0.0625 -0.20312,-0.0625c-0.21094,0 -0.37109,0.07812 -0.48438,0.23438c-0.10547,0.15625 -0.15625,0.37109 -0.15625,0.64062l0,1.4688l-0.96875,0l0,-2.9844l0.96875,0l0,0.4375c0.13281,-0.17578 0.28516,-0.30469 0.45312,-0.39062c0.16406,-0.08203 0.34375,-0.125 0.53125,-0.125c0.34375,0 0.60156,0.10938 0.78125,0.32812c0.1875,0.21094 0.28125,0.51172 0.28125,0.90625l0.00001,-0.00003z"/>
  </symbol>
  <symbol id="s">
   <path id="svg_13" d="m1.2188,-1.5312l-1.0781,-1.4531l1,0l0.625,0.875l0.60938,-0.875l1.0156,0l-1.0781,1.4531l1.125,1.5312l-1,0l-0.67188,-0.9375l-0.67188,0.9375l-1.0156,0l1.14058,-1.5312z"/>
  </symbol>
  <symbol id="r">
   <path id="svg_14" d="m2.4219,-4.1562l0,0.625l-0.51562,0c-0.13672,0 -0.23438,0.02734 -0.29688,0.07812c-0.05469,0.05469 -0.07813,0.13672 -0.07813,0.25l0,0.21875l0.82812,0l0,0.67189l-0.82812,0l0,2.3125l-0.95312,0l0,-2.3125l-0.46875,0l0,-0.67189l0.46875,0l0,-0.21875c0,-0.32031 0.08594,-0.5625 0.26562,-0.71875c0.1875,-0.15625 0.47266,-0.23437 0.85938,-0.23437l0.71875,0z"/>
  </symbol>
  <symbol id="q">
   <path id="svg_15" d="m3.2344,-2.5c0.11328,-0.17578 0.25391,-0.3125 0.42188,-0.40625c0.16406,-0.10156 0.35156,-0.15625 0.5625,-0.15625c0.33203,0 0.58594,0.10938 0.76562,0.32812c0.1875,0.21094 0.28125,0.51172 0.28125,0.90625l0,1.8281l-0.96875,0l0,-1.5625c0.00781,-0.01953 0.01563,-0.03906 0.01563,-0.0625l0,-0.10938c0,-0.21875 -0.03125,-0.375 -0.09375,-0.46875s-0.16406,-0.14062 -0.29688,-0.14062c-0.1875,0 -0.33594,0.07813 -0.4375,0.23438c-0.09375,0.14844 -0.14062,0.35938 -0.14062,0.64062l0,1.4688l-0.96875,0l0,-1.5625c0,-0.33203 -0.03125,-0.54688 -0.09375,-0.64062c-0.05469,-0.09375 -0.15234,-0.14062 -0.29688,-0.14062c-0.17969,0 -0.32031,0.07812 -0.42188,0.23438c-0.09375,0.14844 -0.14062,0.35938 -0.14062,0.64062l0,1.4688l-0.96875,0l0,-2.9844l0.96875,0l0,0.4375c0.11328,-0.17578 0.24219,-0.30469 0.39062,-0.39062c0.15625,-0.08203 0.32812,-0.125 0.51562,-0.125c0.20703,0 0.39062,0.05469 0.54688,0.15625c0.15625,0.09375 0.27344,0.23047 0.35938,0.40625l0,-0.00006z"/>
  </symbol>
  <symbol id="p">
   <path id="svg_16" d="m3.4688,-1.8281l0,1.8281l-0.96875,0l0,-1.3906c0,-0.25781 -0.00781,-0.4375 -0.01563,-0.53125c-0.01171,-0.10156 -0.03125,-0.17578 -0.0625,-0.21875c-0.03125,-0.0625 -0.08593,-0.10938 -0.15625,-0.14062c-0.0625,-0.03906 -0.13281,-0.0625 -0.20312,-0.0625c-0.21094,0 -0.37109,0.07812 -0.48438,0.23438c-0.10547,0.15625 -0.15625,0.37109 -0.15625,0.64062l0,1.4688l-0.96875,0l0,-4.1562l0.96875,0l0,1.6094c0.13281,-0.17578 0.28516,-0.30469 0.45312,-0.39062c0.16406,-0.08203 0.34375,-0.125 0.53125,-0.125c0.34375,0 0.60156,0.10938 0.78125,0.32812c0.1875,0.21094 0.28125,0.51172 0.28125,0.90625l0.00001,-0.00013z"/>
  </symbol>
  <symbol id="o">
   <path id="svg_17" d="m0.5,-3.9844l1.1562,0l1.4375,2.7344l0,-2.7344l0.98438,0l0,3.9844l-1.1562,0l-1.4375,-2.7344l0,2.7344l-0.98438,0l0,-3.9844z"/>
  </symbol>
  <symbol id="n">
   <path id="svg_18" d="m0.42188,-1.1719l0,-1.8125l0.96875,0l0,0.29688l0,0.60938l0,0.48438c0,0.24219 0.00391,0.41797 0.01563,0.53125c0.00781,0.10547 0.03125,0.17969 0.0625,0.21875c0.03906,0.0625 0.09375,0.11719 0.15625,0.15625c0.0625,0.03125 0.13281,0.04688 0.21875,0.04688c0.19531,0 0.35156,-0.07813 0.46875,-0.23438c0.11328,-0.15625 0.17188,-0.36719 0.17188,-0.64062l0,-1.4688l0.95312,0l0,2.9844l-0.95312,0l0,-0.4375c-0.14844,0.17969 -0.30469,0.30859 -0.46875,0.39062c-0.15625,0.08203 -0.33595,0.125 -0.53125,0.125c-0.34375,0 -0.60938,-0.10156 -0.79688,-0.3125c-0.17969,-0.21875 -0.26562,-0.53125 -0.26562,-0.9375l-0.00001,0.00001z"/>
  </symbol>
  <symbol id="m">
   <path id="svg_19" d="m0.5,-3.9844l1.7031,0c0.50781,0 0.89844,0.11719 1.1719,0.34375c0.26953,0.21875 0.40625,0.53906 0.40625,0.95312c0,0.41797 -0.13672,0.74219 -0.40625,0.96875c-0.27344,0.21875 -0.66406,0.32812 -1.1719,0.32812l-0.67188,0l0,1.3906l-1.0312,0l-0.00002,-3.98434zm1.0312,0.75l0,1.1094l0.5625,0c0.19531,0 0.34766,-0.04688 0.45312,-0.14062c0.11328,-0.10156 0.17188,-0.24219 0.17188,-0.42188c0,-0.17578 -0.05859,-0.3125 -0.17188,-0.40625c-0.10547,-0.09375 -0.25781,-0.14062 -0.45312,-0.14062l-0.5625,-0.00003z"/>
  </symbol>
  <symbol id="l">
   <path id="svg_20" d="m0.45312,-2.9844l0.96875,0l0,2.9375c0,0.39453 -0.10156,0.69531 -0.29688,0.90625c-0.1875,0.21875 -0.46484,0.32812 -0.82812,0.32812l-0.48438,0l0,-0.64062l0.17188,0c0.17578,0 0.29688,-0.04297 0.35938,-0.125c0.07031,-0.07422 0.10938,-0.23047 0.10938,-0.46875l-0.00001,-2.9375zm0,-1.1719l0.96875,0l0,0.78125l-0.96875,0l0,-0.78125z"/>
  </symbol>
 </defs>
 <g>
  <title>background</title>
  <rect fill="none" id="canvas_background" height="514" width="514" y="-1" x="-1"/>
 </g>
 <g>
  <title>Layer 1</title>
  <g id="svg_21">
   <path fill="#3baa3b" id="svg_22" d="m350,507.5c125.44,0 227.5,-102.06 227.5,-227.5s-102.06,-227.5 -227.5,-227.5s-227.5,102.06 -227.5,227.5s102.06,227.5 227.5,227.5zm0,-437.5c115.79,0 210,94.207 210,210s-94.207,210 -210,210s-210,-94.207 -210,-210s94.207,-210 210,-210z"/>
   <path fill="#3baa3b" id="svg_23" d="m376.25,273.9l-9.9023,14.852l9.9023,0l0,-14.852z"/>
   <path fill="#3baa3b" id="svg_24" d="m166.25,288.75l-8.543,0c2.0156,44.965 19.785,87.789 50.195,120.97l5.9805,-5.9805c3.418,-3.4141 8.957,-3.4141 12.375,0c3.4141,3.418 3.4141,8.957 0,12.375l-5.9805,5.9805c33.184,30.41 76.008,48.18 120.97,50.195l0,-8.543c0,-4.832 3.918,-8.75 8.75,-8.75s8.75,3.918 8.75,8.75l0,8.543c44.965,-2.0156 87.789,-19.785 120.97,-50.195l-5.9805,-5.9805c-3.4141,-3.418 -3.4141,-8.957 0,-12.375c3.418,-3.4141 8.957,-3.4141 12.375,0l5.9805,5.9805c30.41,-33.184 48.18,-76.008 50.195,-120.97l-8.543,0c-4.832,0 -8.75,-3.918 -8.75,-8.75s3.918,-8.75 8.75,-8.75l8.543,0c-2.0156,-44.965 -19.785,-87.785 -50.195,-120.97l-5.9805,5.9805c-3.418,3.418 -8.957,3.418 -12.375,0c-3.4141,-3.418 -3.4141,-8.957 0,-12.375l5.9805,-5.9805c-33.184,-30.41 -76.008,-48.184 -120.97,-50.199l0,8.543c0,4.832 -3.918,8.75 -8.75,8.75s-8.75,-3.918 -8.75,-8.75l0,-8.543c-44.965,2.0156 -87.785,19.785 -120.97,50.195l5.9805,5.9805c3.418,3.418 3.418,8.957 0,12.375c-3.418,3.4141 -8.957,3.4141 -12.375,0l-5.9805,-5.9805c-30.41,33.184 -48.184,76.008 -50.199,120.97l8.543,0c4.832,0 8.75,3.918 8.75,8.75s-3.918,8.75 -8.75,8.75l0.004,0.004zm183.75,-140c34.18,0.03906 66.996,13.395 91.492,37.23c24.492,23.836 38.738,56.281 39.707,90.445l2.6133,-2.6133c3.418,-3.418 8.957,-3.418 12.375,0s3.418,8.957 0,12.375l-17.5,17.5c-1.6406,1.6406 -3.8672,2.5625 -6.1875,2.5625s-4.5469,-0.92188 -6.1875,-2.5625l-17.5,-17.5c-3.418,-3.418 -3.418,-8.957 0,-12.375s8.957,-3.418 12.375,0l2.4961,2.4961c-0.94141,-27.992 -12.164,-54.652 -31.52,-74.895c-19.359,-20.238 -45.492,-32.641 -73.414,-34.832l0,8.418c0,4.832 -3.918,8.75 -8.75,8.75s-8.75,-3.918 -8.75,-8.75l0,-8.418c-27.051,2.125 -52.457,13.836 -71.645,33.023s-30.898,44.594 -33.023,71.645l8.418,0c4.832,0 8.75,3.918 8.75,8.75s-3.918,8.75 -8.75,8.75l-8.418,0c2.125,27.055 13.832,52.461 33.02,71.648c19.188,19.191 44.594,30.898 71.648,33.023l0,-8.4219c0,-4.832 3.918,-8.75 8.75,-8.75s8.75,3.918 8.75,8.75l0,8.4219c28.227,-2.0664 54.641,-14.688 73.98,-35.352c1.5898,-1.6953 3.7891,-2.6875 6.1133,-2.7578s4.582,0.78906 6.2695,2.3867c1.6914,1.5938 2.6758,3.7969 2.7422,6.1211c0.0625,2.3242 -0.80078,4.5781 -2.4023,6.2617c-24.711,26.398 -59.297,41.312 -95.453,41.168c-46.891,0 -90.219,-25.016 -113.66,-65.625c-23.449,-40.609 -23.449,-90.641 0,-131.25c23.445,-40.609 66.773,-65.625 113.66,-65.625l0.0009,0.0025zm0,157.5c-3.2266,0 -6.1914,-1.7773 -7.7148,-4.6211c-1.5234,-2.8438 -1.3555,-6.2969 0.43359,-8.9844l35,-52.5c2.1406,-3.207 6.1289,-4.6367 9.8164,-3.5195c3.6914,1.1172 6.2148,4.5195 6.2148,8.375l0,43.75l8.75,0c4.832,0 8.75,3.918 8.75,8.75s-3.918,8.75 -8.75,8.75l-8.75,0l0,8.75c0,4.832 -3.918,8.75 -8.75,8.75s-8.75,-3.918 -8.75,-8.75l0,-8.75l-26.24999,0zm-17.5,0c4.832,0 8.75,3.918 8.75,8.75s-3.918,8.75 -8.75,8.75l-35,0c-3.2266,0 -6.1914,-1.7773 -7.7148,-4.6211c-1.5234,-2.8438 -1.3555,-6.2969 0.43359,-8.9844l33.203,-49.805c-0.23438,-1.0469 -0.60547,-2.0547 -1.1094,-3.0039c-0.96875,-1.7734 -2.6094,-3.5859 -7.3125,-3.5859s-6.3398,1.8125 -7.3164,3.5859c-0.83984,1.6406 -1.3281,3.4336 -1.4336,5.2734c-0.03125,4.832 -3.9727,8.7266 -8.8047,8.6953c-4.832,-0.03125 -8.7266,-3.9727 -8.6953,-8.8047c0,-10.551 6.9922,-26.25 26.25,-26.25s26.25,15.699 26.25,26.25c0,1.7266 -0.51172,3.418 -1.4688,4.8555l-25.934,38.895l18.65291,-0.0001z"/>
   <use fill="#3baa3b" id="svg_25" xlink:href="#t" y="576.40625" x="70"/>
   <use fill="#3baa3b" id="svg_26" xlink:href="#b" y="576.40625" x="74.011719"/>
   <use fill="#3baa3b" id="svg_27" xlink:href="#a" y="576.40625" x="76.710938"/>
   <use fill="#3baa3b" id="svg_28" xlink:href="#f" y="576.40625" x="80.417969"/>
   <use fill="#3baa3b" id="svg_29" xlink:href="#d" y="576.40625" x="84.109375"/>
   <use fill="#3baa3b" id="svg_30" xlink:href="#a" y="576.40625" x="86.722656"/>
   <use fill="#3baa3b" id="svg_31" xlink:href="#k" y="576.40625" x="90.433594"/>
   <use fill="#3baa3b" id="svg_32" xlink:href="#j" y="576.40625" x="96.25"/>
   <use fill="#3baa3b" id="svg_33" xlink:href="#i" y="576.40625" x="100.167969"/>
   <use fill="#3baa3b" id="svg_34" xlink:href="#e" y="576.40625" x="105.636719"/>
   <use fill="#3baa3b" id="svg_35" xlink:href="#h" y="576.40625" x="107.507812"/>
   <use fill="#3baa3b" id="svg_36" xlink:href="#c" y="576.40625" x="110.75"/>
   <use fill="#3baa3b" id="svg_37" xlink:href="#g" y="576.40625" x="114.507812"/>
   <use fill="#3baa3b" id="svg_38" xlink:href="#e" y="576.40625" x="118.402344"/>
   <use fill="#3baa3b" id="svg_39" xlink:href="#s" y="576.40625" x="120.277344"/>
   <use fill="#3baa3b" id="svg_40" xlink:href="#f" y="576.40625" x="123.804688"/>
   <use fill="#3baa3b" id="svg_41" xlink:href="#b" y="576.40625" x="127.492188"/>
   <use fill="#3baa3b" id="svg_42" xlink:href="#r" y="581.875" x="70"/>
   <use fill="#3baa3b" id="svg_43" xlink:href="#b" y="581.875" x="72.378906"/>
   <use fill="#3baa3b" id="svg_44" xlink:href="#c" y="581.875" x="75.078125"/>
   <use fill="#3baa3b" id="svg_45" xlink:href="#q" y="581.875" x="78.832031"/>
   <use fill="#3baa3b" id="svg_46" xlink:href="#d" y="581.875" x="86.4375"/>
   <use fill="#3baa3b" id="svg_47" xlink:href="#p" y="581.875" x="89.050781"/>
   <use fill="#3baa3b" id="svg_48" xlink:href="#a" y="581.875" x="92.941406"/>
   <use fill="#3baa3b" id="svg_49" xlink:href="#o" y="581.875" x="98.554688"/>
   <use fill="#3baa3b" id="svg_50" xlink:href="#c" y="581.875" x="103.132812"/>
   <use fill="#3baa3b" id="svg_51" xlink:href="#n" y="581.875" x="106.890625"/>
   <use fill="#3baa3b" id="svg_52" xlink:href="#g" y="581.875" x="110.785156"/>
   <use fill="#3baa3b" id="svg_53" xlink:href="#m" y="581.875" x="116.582031"/>
   <use fill="#3baa3b" id="svg_54" xlink:href="#b" y="581.875" x="120.589844"/>
   <use fill="#3baa3b" id="svg_55" xlink:href="#c" y="581.875" x="123.285156"/>
   <use fill="#3baa3b" id="svg_56" xlink:href="#l" y="581.875" x="127.042969"/>
   <use fill="#3baa3b" id="svg_57" xlink:href="#a" y="581.875" x="128.917969"/>
   <use fill="#3baa3b" id="svg_58" xlink:href="#h" y="581.875" x="132.625"/>
   <use fill="#3baa3b" id="svg_59" xlink:href="#d" y="581.875" x="135.867188"/>
  </g>
 </g>
</svg>