<svg enable-background="new 0 0 841.8900146 841.8900146" viewBox="0 0 841.8900146 841.8900146" xmlns="http://www.w3.org/2000/svg"><g enable-background="new" fill="#72c6cf"><path d="m233.0634155 561.4697266v-23.9169922l24.5546875-22.6416016c48.7910156-45.2832031 71.7509766-70.15625 72.0698242-97.5810547 0-18.4960938-9.8852539-34.7597656-36.9912109-34.7597656-18.1772461 0-33.8027344 9.2480469-44.3261719 17.2207031l-11.4804688-27.7441406c14.9882813-12.1181641 37.6293945-21.3652344 63.7788086-21.3652344 45.9204102 0 68.2431641 29.0185547 68.2431641 62.8212891 0 36.3544922-26.1494141 65.6923828-62.184082 99.1757813l-18.1772461 15.6259766v.6376953h85.1445313v32.5273438h-140.631836z"/><path d="m491.3646851 561.4697266v-52.6171875h-93.7543945v-25.5117188l84.5063477-129.1513672h46.2402344v125.0058594h26.7871094v29.6572266h-26.7871094v52.6171875zm0-82.2744141v-56.4443359c0-11.7988281.3193359-23.9169922 1.2753906-36.0351563h-1.2753906c-6.3769531 13.0751953-11.7988281 23.5986328-18.1767578 35.078125l-37.9482422 56.7636719-.3183594.6376953z"/></g><path d="m299.9824829 126.2970428c-5.2741394 1.2221069-11.0700073 2.6971741-17.2920227 4.4859619-5.7416077 1.6506805-11.5760193 3.4910278-17.4884033 5.5400696-65.6319427 22.7449341-108.8069153 60.075531-130.6503143 81.9003296-16.993927 17.0588684-99.1739349 103.1004791-100.7750397 239.354538-1.5305634 130.263916 71.6539307 215.7752686 88.7368469 234.7530518 104.4872437 116.0768432 248.7514038 113.7930908 275.9673462 112.8340454 41.8542175-1.4750366 151.0406494-12.6751709 239.473999-102.2561646 101.5386963-102.8563843 99.6548462-231.9962158 98.7560425-257.056488-1.0706177-29.8573608-5.6375732-119.9355774-74.0671387-201.8691559-60.8915405-72.9083099-136.9934692-97.0319824-165.5616455-104.5653381" style="fill:none;stroke:#72c6cf;stroke-width:50;stroke-linecap:round;stroke-linejoin:round;stroke-miterlimit:10"/><path d="m261.1163025 238.2822418 164.696167-118.2193146-184.7124787-83.5457878z" fill="#72c6cf"/><g fill="#e30613"><path d="m809.6454468 328.1571045c-6.5755005-3.7320557-12.7955322-7.8194885-19.015564-11.9069824-6.2200317-4.0874329-12.0846558-8.3526306-18.1270142-12.6177979-11.9069824-8.7080688-23.2807007-17.7715759-34.4768677-27.0127869-22.3921509-18.6601563-43.7180176-38.3866119-64.3330688-58.8238983-20.4373169-20.6150208-40.3414917-41.9408875-58.8237915-64.3330688-9.241272-11.1960602-18.3046875-22.7475739-27.0128174-34.4767838-4.2651367-5.8646164-8.5303345-11.9069366-12.6177979-18.1269836s-8.1749268-12.440094-11.9069824-19.015564c6.5755005 3.7320404 12.7955322 7.641777 19.015564 11.9069443 6.2200317 4.0874634 12.0847168 8.352623 18.1269531 12.6178131 11.9069824 8.7080536 23.2807007 17.7715607 34.4768677 27.0127716 22.3921509 18.6601105 43.7180176 38.3865509 64.3330688 58.8238373 20.4373169 20.6150208 40.1636963 41.9408875 58.8238525 64.3330841 9.2412109 11.1960449 18.3046875 22.7475586 27.0127563 34.4768066 4.2652588 5.8645935 8.5303345 11.9069519 12.6177979 18.1270142 4.0876466 6.2200928 8.1750489 12.440155 11.9070436 19.0155945z"/><path d="m826.9306641 345.4417725-20.4941406-11.6318359c-6.765625-3.840332-13.1767578-8.0532227-19.3759766-12.1274414-4.9111328-3.2275391-9.6533203-6.5976563-14.2402344-9.8569336-1.3496094-.9594727-2.703125-1.9213867-4.0664063-2.8833008l-.0878906-.0634766c-10.5761719-7.734375-21.6269531-16.3920898-34.7773438-27.2460938-21.2646484-17.7207031-42.4443359-37.0854645-64.7714844-59.2207184-23.1845703-23.3862305-42.5566406-44.5732422-59.2607422-64.8115234-9.4228516-11.4155273-18.5800781-23.1040039-27.21875-34.7402344-5.0888672-6.9960938-9.1542969-12.8364258-12.8310547-18.4316406-4.0947266-6.2314453-8.2998047-12.6318359-12.1279297-19.3774414l-11.6269531-20.4902344 20.4882813 11.6293945c6.5898438 3.7402344 12.9462891 7.7192383 19.4306641 12.1635742 4.890625 3.215332 9.6132813 6.5717773 14.1816406 9.8183594 1.3515625.9604492 2.7060547 1.9228516 4.0703125 2.8857422l.0878906.0634766c10.5820313 7.7387695 21.6328125 16.3964844 34.7783203 27.2460938 21.2636719 17.7197266 42.4423828 37.0849609 64.7714844 59.2207031 22.1738281 22.3662109 41.5380859 43.5454102 59.2402344 64.7880859 9.4384766 11.4350739 18.5966797 23.1230621 27.2392578 34.7631989 5.1025391 7.0161133 9.1669922 12.8569336 12.8310547 18.4326172 4.0732422 6.1987305 8.2861328 12.609375 12.1279297 19.3764648zm-50.6347657-47.0888672c1.3583984.9594727 2.7080078 1.918457 4.0556641 2.8759766 2.7382813 1.9462891 5.3886719 3.8295898 8.0566406 5.6757813-2.5380859-3.7045898-5.3320313-7.6503906-8.5439453-12.0673828-8.4726563-11.4101563-17.4921875-22.9213867-26.7695313-34.1621094-17.4414063-20.9287262-36.5585938-41.836441-58.4267578-63.8945465-22.0205078-21.8300781-42.9287109-40.9482422-63.8779297-58.4067383-12.9033203-10.6499023-23.75-19.1494141-34.109375-26.7265625-1.359375-.9604492-2.7109375-1.9204102-4.0585938-2.878418-2.7373047-1.9453125-5.3857422-3.8276367-8.0527344-5.6723633 2.5478516 3.7192383 5.3398438 7.6606445 8.5439453 12.065918 8.46875 11.4067383 17.4882813 22.918457 26.7685547 34.1625977 16.4511719 19.9311523 35.5634766 40.8310547 58.4277344 63.8945313 22.0195313 21.8295898 42.9267578 40.9472656 63.8779297 58.4062653 12.9082032 10.6542967 23.7548829 19.1542967 34.1083985 26.7270506z"/><path d="m562.0876465 326.9131165c2.6657715-7.6417542 5.864624-14.5726929 9.4189453-21.5036011 3.3765869-6.9308777 7.1085815-13.5063782 10.8406372-20.0818176 7.4640503-12.9732361 15.8167114-25.2356567 24.3469849-37.1425781 17.4161377-23.6361542 36.4317017-45.6729279 56.8690186-66.2878876 20.6149902-20.4373016 42.6517334-39.6305847 66.2879028-56.868988 11.9069214-8.5303574 24.1692505-16.8829803 37.1425781-24.3470306 6.5755005-3.7320404 13.151001-7.4640503 19.9041748-10.8406601 6.9309692-3.3765869 13.8618164-6.57547 21.3258667-9.4189301l.7109375-.1777267c.8885498-.3554306 1.9547729.1777267 2.1325684 1.0662994.1776733.7108536 0 1.2440033-.3554688 1.7771606l-30.2116089 31.4556503-30.3893433 31.1001968c-20.2595825 20.7927551-40.8745728 41.2300415-61.3118896 61.8450623-20.6149292 20.4372864-41.2300415 41.0523071-61.8449707 61.3119049l-31.1003418 30.3893127-31.4556885 30.2116394c-.7108765.7108459-1.7771606.7108459-2.4879761 0-.5331421-.5331116-.5331421-1.2440186-.3554688-1.7771606z"/><path d="m563.1542969 336.4534912c-2.1015625 0-4.203125-.8183594-5.8408203-2.4560547-2.1904297-2.1904297-2.9277344-5.4204102-1.9248047-8.4291992l.3330078-1.0004883.5683594-.7573242c2.4013672-6.7314453 5.3251953-13.3535156 9.4023438-21.3076172 3.4580078-7.0927734 7.2929688-13.8491211 11.0019531-20.3837891 8.3398438-14.4951172 17.5878906-27.7700348 24.7158203-37.7197418 17.234375-23.3901367 36.5761719-45.9350586 57.5371094-67.078125 21.8525391-21.6655273 44.40625-41.0126953 67.0742188-57.5449219 9.9902344-7.1577148 23.2626953-16.4047852 37.7314453-24.7294922 6.5712891-3.7294922 13.3320313-7.5668945 20.2373047-11.0200195 6.2167969-3.0288086 13.6289063-6.5209961 21.9199219-9.6791992l.7373047-.2319336.4462891-.1113281c2.0869141-.6586914 4.3603516-.4448242 6.3183594.6162109 2.0478516 1.109375 3.4951172 3.0141602 3.9931641 5.2451172.3945313 1.6860352.4677734 4.1982422-1.2851563 6.8271484l-.3203125.4804688-30.6123049 31.8720703-30.4267578 31.140625c-13.5292969 13.8852539-27.4394531 27.8354492-40.8916016 41.3256836-6.8242188 6.8447266-13.6494141 13.6889648-20.4541016 20.5527344-6.9160156 6.8564453-13.7910156 13.6923828-20.6669922 20.5288086-13.5136719 13.4360352-27.4873047 27.3296051-41.2382813 40.843277l-31.1132813 30.4018555-31.4638672 30.2211914c-1.6289061 1.5961913-3.7031248 2.3940429-5.7783201 2.3940429zm226.3134765-240.6308746c-6.4492188 3.2373047-12.9628906 6.9345703-19.265625 10.5112305-13.9375 8.019043-26.8642578 17.027832-36.5654297 23.9780273-22.0957031 16.1157227-44.1474609 35.0351563-65.4970703 56.2011719-20.4775391 20.6557617-39.4033203 42.7158203-56.2128906 65.527832-6.9003906 9.6338043-15.9111328 22.5634918-23.9453125 36.5278473-3.4980469 6.1635742-7.1298828 12.5625-10.3466797 19.1069336l13.7158203-13.1743164 31.0605469-30.3500977c13.7109375-13.4741364 27.6708984-27.3540192 41.1708984-40.7768707 6.8798828-6.8408203 13.7607422-13.6816406 20.640625-20.5024414 6.7744141-6.8330078 13.6074219-13.6860352 20.4414063-20.5395508 13.4257813-13.4643555 27.3085938-27.387207 40.7919922-41.2250977l30.3945313-31.1069336z"/></g></svg>