<svg enable-background="new 0 0 841.8900146 841.8900146" viewBox="0 0 841.8900146 841.8900146" xmlns="http://www.w3.org/2000/svg"><g enable-background="new" fill="#72c6cf"><path d="m233.0634155 561.4697266v-23.9169922l24.5546875-22.6416016c48.7910156-45.2832031 71.7509766-70.15625 72.0698242-97.5810547 0-18.4960938-9.8852539-34.7597656-36.9912109-34.7597656-18.1772461 0-33.8027344 9.2480469-44.3261719 17.2207031l-11.4804688-27.7441406c14.9882813-12.1181641 37.6293945-21.3652344 63.7788086-21.3652344 45.9204102 0 68.2431641 29.0185547 68.2431641 62.8212891 0 36.3544922-26.1494141 65.6923828-62.184082 99.1757813l-18.1772461 15.6259766v.6376953h85.1445313v32.5273438h-140.631836z"/><path d="m491.3646851 561.4697266v-52.6171875h-93.7543945v-25.5117188l84.5063477-129.1513672h46.2402344v125.0058594h26.7871094v29.6572266h-26.7871094v52.6171875zm0-82.2744141v-56.4443359c0-11.7988281.3193359-23.9169922 1.2753906-36.0351563h-1.2753906c-6.3769531 13.0751953-11.7988281 23.5986328-18.1767578 35.078125l-37.9482422 56.7636719-.3183594.6376953z"/></g><path d="m299.9824829 126.2970581c-5.2741394 1.2221069-11.0700073 2.6971741-17.2920227 4.4859619-5.7416077 1.6506805-11.5760193 3.4910278-17.4884033 5.5400696-65.6319427 22.7449341-108.8069153 60.075531-130.6503143 81.9003296-16.993927 17.0588684-99.1739349 103.1004639-100.7750397 239.3545227-1.5305634 130.263916 71.6539307 215.7752686 88.7368469 234.7530518 104.487236 116.0768433 248.7514038 113.7930908 275.9673462 112.8340454 41.8542175-1.4750366 151.0406494-12.6751709 239.473999-102.2561646 101.5386963-102.8563843 99.6548462-231.9962158 98.7560425-257.056488-1.0706177-29.8573608-5.6375732-119.9355774-74.0671387-201.8691406-60.8915405-72.9083099-136.9934692-97.0319824-165.5616455-104.5653381" style="fill:none;stroke:#72c6cf;stroke-width:50;stroke-linecap:round;stroke-linejoin:round;stroke-miterlimit:10"/><path d="m261.1163025 238.2822571 164.696167-118.2193146-184.7124787-83.5457878z" fill="#72c6cf"/><g fill="#00a800"><path d="m503.2359009 204.4648895c13.611145 6.1505127 26.1768188 13.3233032 38.4689941 20.7636719 12.2560425 7.475769 24.1401367 15.3151245 35.6386719 23.5316772l8.6311035 6.1552734 8.4399414 6.3423004 8.4129639 6.3685913 8.2288818 6.5488281 8.2177124 6.5595093 8.0248413 6.748291 8.0248413 6.748291c2.6664429 2.2577515 5.229248 4.6168213 7.848938 6.9202271-12.0576172-1.8678589-24.1151733-3.7357178-36.1727905-5.6035767-5.2720337 2.5141602-9.7838745 2.3340454-10.6513062.7346191-.8293457-1.5291138 1.2841797-5.071228 5.394165-8.0275879l11.0465088-15.8583984c7.4428101-10.5126953 15.1124878-20.8526764 22.9960327-31.0298004 3.9042969-5.1172485 7.9291992-10.1425171 11.9362183-15.1814575 4.0487061-5.0073242 8.2077637-9.930481 12.3061523-14.8999023l6.1795044-7.4296875 6.3818359-7.2757568 6.381958-7.2758789c2.1082153-2.4397583 4.2598267-4.8463745 6.4820557-7.1994019 17.3439331-19.1542358 35.7335815-37.5126343 55.1872559-55.0612183 9.857666-8.6746826 19.7745361-17.3043823 30.3035889-25.4680786 10.5120239-8.1766357 21.2338867-16.1935425 33.0303955-23.3927002l.6376953-.3892822c.9404297-.5737915 2.1677856-.2767334 2.7416992.6636353.4346924.7123413.3682251 1.5904541-.0976563 2.2233887-15.2894287 20.7178955-30.4005127 41.5715332-45.8363037 62.1780396-15.4401245 20.6032104-30.7036133 41.3410034-46.2888184 61.8338013l-46.585144 61.6081696-46.9368286 61.3405151-.0183716.0240479c-1.303833 1.7041016-3.7423096 2.0285034-5.4464111.7245483-.149292-.1141357-.3029175-.2531433-.4307861-.3834839-9.677002-9.9979248-19.4390869-19.9125366-29.0462036-29.9788208l-28.9008179-30.1210938c-9.6497192-10.0245972-19.2668457-20.0810699-28.7997437-30.2199249l-28.6791992-30.3378906c-.7148438-.8187256-.6741333-2.0603027.0792847-2.8209229.7705079-.7778321 2.0479737-.8120118 2.8691407-.0625611z"/><path d="m503.6482239 203.8383789 2.4077148.9005737 2.4903259.9785767c1.661377.6628418 3.316803 1.3432007 4.958313 2.0550537 3.2870483 1.4154663 6.5495605 2.8933105 9.7894287 4.4203491s6.4570923 3.1032104 9.6550293 4.7141724c3.1917114 1.624939 6.3453979 3.3032837 9.5012817 4.9950562 6.3081665 3.4071655 12.538208 6.9248657 18.7225342 10.5600586 3.0880127 1.8210449 6.1716919 3.6558228 9.22052 5.5479126 3.0418091 1.901123 6.0696411 3.8328247 9.076355 5.7911377l8.9986572 5.8721313c2.9805908 1.9876709 5.9118652 4.0540771 8.8726196 6.0794678l8.8449707 6.1365967c2.9208374 2.0823364 5.7977905 4.2214355 8.7009888 6.3314819l8.6414185 6.4302368 8.4691162 6.6483154 8.3988647 6.6088257 8.3570557 6.8961792c3.5653687 2.9420776 4.0706177 8.2174683 1.128479 11.7828369-1.8727417 2.2694702-4.6908569 3.2990723-7.4116211 2.9888916l-.5913696-.0728149-18.1776123-2.2124634c-6.0574341-.7486572-12.12323-1.4437256-18.1699219-2.2617798l5.5983276-.821167c-2.2633057 1.0974121-4.6385498 2.0369263-7.4836426 2.5952759-1.4326782.2734985-2.9448242.4782715-4.8418579.4237671-.982666-.0466919-1.9872437-.1185303-3.3430176-.4552612-1.2460938-.3327026-2.9837036-.8115845-5.1707764-2.604126-.9966431-.7949829-2.3445435-2.4129639-3.017334-4.0349731-.3671875-.8322144-.6505737-1.7652588-.7582397-2.4238892-.1343994-.6942749-.2261353-1.5617676-.215271-2.0569458.0014038-2.5077515.4985352-3.7942505.9157715-5.0170288.8897705-2.2603149 1.8369141-3.6103516 2.7675171-4.8651733 1.8708496-2.4302979 3.8051147-4.1547852 5.8626709-5.7129517l-2.3894043 2.4258423 6.819458-10.2958984 3.4100342-5.1483765 3.5116577-5.1925049c4.6886597-6.867981 9.4727173-13.6720581 14.3496704-20.4095459l3.6738281-5.041687c1.2033691-1.6387939 2.4358521-3.3136597 3.708313-4.9619751l7.5714111-9.9128418c2.4907837-3.3391113 5.1519775-6.5056152 7.7279053-9.7597046l7.8045654-9.7134399c2.6309814-3.2549438 5.2424927-6.5321655 7.9823608-9.6766968l8.0253296-9.4147949c1.2938232-1.5354004 2.7131348-3.1500244 4.12146-4.7567139l4.2113037-4.8044434c2.6595459-3.0098267 5.456543-6.1539917 8.2727051-9.2371216 2.8069458-3.0916138 5.647522-6.152832 8.5043945-9.1994019 2.8696289-3.0343018 5.7907104-6.0193481 8.7263794-8.989563 5.8676147-5.944519 11.8418579-11.7833252 17.897644-17.5357666 3.0335083-2.881958 6.067688-5.7141724 9.1679688-8.5648804 1.5643921-1.4335938 3.1217041-2.8717651 4.7275391-4.2786255l4.659668-4.1166992c6.2355347-5.4854736 12.5976563-10.9672852 19.187439-16.3037109l4.9759521-3.9685059 4.9346924-3.8490601c3.3169556-2.5632324 6.6772461-5.1187134 10.1126709-7.6317749 3.4315796-2.5163574 6.9261475-4.9969482 10.5326538-7.3609009 1.8023682-1.1849365 3.6132202-2.3626709 5.4541016-3.5099487l2.7689819-1.7111206 1.5682373-.9489136c3.3912354-2.0157471 7.6907349-2.6295776 11.4968872-1.6511841 3.8210449.9177856 7.3346558 3.4780273 9.3806152 6.8383179 1.0319824 1.6588135 1.7619019 3.574585 2.0939941 5.5410767.3302002 1.9676514.2779541 3.9806519-.1500244 5.899353-.4263306 1.9222412-1.2158813 3.7562866-2.350769 5.4031372l-.4835815.6693115-.2302246.3093262-.9208984 1.2370605-3.6835938 4.9483032-7.3671265 9.8965454-14.7340698 19.7927246c-9.828064 13.1905518-19.6101685 26.4180908-29.5664673 39.5026855l-30.1084595 39.0787354c-10.0224609 13.0393066-20.1697388 25.9532471-30.24823 38.93573-20.3132324 25.8362427-40.9176025 51.4589844-61.5734863 77.0374756l-7.8063354 9.5455322-1.9515991 2.3863831-.975769 1.1931763-.4090576.498291c-.2698975.3152161-.5358887.6293335-.8394165.9164429-.5909424.5850525-1.2440186 1.1135559-1.9414673 1.5706787-2.7983398 1.8423767-6.2640381 2.4736023-9.4938965 1.7702332-1.6137085-.3450928-3.1672363-1.0276794-4.4981079-1.9615784-.6762085-.4548035-1.2655029-1.009552-1.8430786-1.572113l-.543335-.5946655-16.6039429-18.2835083c-11.1481934-12.1282959-21.9319458-24.510376-32.8311157-36.8192139l-16.298584-18.53302-16.1240234-18.7019653c-5.3549805-6.2553101-10.7260742-12.494812-16.0015259-18.8135376l-7.9416504-9.4470825-1.9845886-2.3608398-.988739-1.1834717-.4917603-.5939941-.2458801-.2969971c-.0942993-.1184692-.1333313-.1501465-.2848816-.3570557-.9873962-1.3250122-.7285461-3.2387085.4618225-4.217041.5769043-.4934692 1.3305969-.7346802 2.0489197-.697998.3601074.0166626.7142334.0995483 1.0403137.242981.1631775.0718994.3182373.1595459.4648438.2582397l.2046509.1546021zm-.824646 1.2529907-.1822815-.1455078-.1078186-.0730591c-.0704041-.0411987-.1430969-.078125-.219635-.1072388-.1528015-.0578613-.3176575-.0874634-.4825439-.0866089-.3310547.0007935-.6532288.1271362-.8852234.3471069-.4869385.4259033-.5358276 1.2709351-.1256104 1.758728l4.2059021 4.4335327 8.4869995 8.9263306 16.9770508 17.8485107 34.1181641 35.5524902 34.2553711 35.4289551 17.1600342 17.6759644.5338135.5482788c.1443481.1095581.2597046.2553101.4179077.3453369.2975464.2034912.6315308.3449707.9824219.4163208.701416.1459961 1.4644775-.0036621 2.0552979-.4046021.1481323-.0994873.2862549-.2137451.4119263-.3414307.128479-.131958.22052-.244812.395813-.4755249l.9346313-1.223999 1.8693237-2.447937 7.4772949-9.7918701 29.9089966-39.1674805c4.9989014-6.5171509 9.9502563-13.0706787 14.8914795-19.631897l14.8425293-19.6693726c9.8766479-13.1262817 19.8310547-26.1958618 29.6437988-39.3685913l29.4926758-39.4783936c9.8729248-13.128479 19.5643921-26.3902588 29.3034058-39.6170044l14.5999756-19.8463135 7.2999878-9.9230957 3.6499634-4.9615479.9124756-1.2403564.4260864-.5820313c.0375366-.0524292.0640869-.1168823.0784912-.1829834.065918-.2645874-.1152954-.5476074-.3779907-.6062622-.1328735-.0317383-.2643433-.0128174-.3797607.0568848l-1.284729.7890015-2.5949707 1.6231689c-1.7261963 1.0884399-3.4315796 2.2113037-5.1318359 3.342041-3.3939209 2.2720337-6.7416382 4.618103-10.0564575 7.0146484-6.6121216 4.8042603-13.1353149 9.8099976-19.5341797 14.899292-6.3896484 5.1154175-12.6296997 10.4290161-18.819458 15.8128052-6.2236328 5.3602295-12.2540894 10.8622437-18.2396851 16.4850464-11.9567871 11.2213135-23.5603027 22.8200073-34.7744751 34.7844849-2.8098755 2.9852295-5.5774536 6.0050659-8.3512573 9.0469971-2.7359619 3.0496216-5.4958496 6.0440674-8.204834 9.138855-5.4032593 6.2028809-10.9202271 12.2542725-16.0949097 18.6174316-21.1798706 25.0800781-41.0476685 51.2161255-59.5610352 78.3436279-.076355.1118774-.1688843.2061157-.2722778.2817993l-.017334.012207c-1.3712158.9949951-2.6520386 2.1339111-3.6645508 3.4225464-.5028687.6383667-.9411011 1.3251953-1.2038574 1.9840088-.1218262.3186035-.2124634.6524658-.197937.8504028.0244141.223877.0038452.1665649.1088867.276001.2434692.2371216 1.0537109.4405518 1.7947388.4634399.7720947.0346069 1.5922241-.0480347 2.4039917-.1940308 1.6322021-.2846069 3.2435303-.8734131 4.7841797-1.5873413l.0133667-.0061646c.2235107-.1035767.461853-.1323853.6881714-.0967407l36.1670532 5.6395264-.947998 2.0269775-7.9776611-7.0419312-8.1535034-6.8703613-8.1530762-6.8514404-8.3145752-6.6536865c-2.7769775-2.2113037-5.5300903-4.4537964-8.3269653-6.6397705l-8.4743652-6.4493408c-2.8388672-2.1311035-5.6474609-4.3031006-8.5114136-6.401001l-8.6553955-6.208374c-11.5422974-8.2614746-23.3969727-16.0941772-35.5110474-23.4946289-6.0681152-3.6856689-12.1870728-7.2870483-18.4066772-10.6975098-3.1097412-1.7055054-6.2445679-3.3635864-9.4087524-4.9623413-1.5823059-.7990723-3.1725464-1.581665-4.7684937-2.352478z"/></g></svg>