<svg width="700" height="700" xmlns="http://www.w3.org/2000/svg">

 <g>
  <title>background</title>
  <rect fill="none" id="canvas_background" height="514" width="514" y="-1" x="-1"/>
 </g>
 <g>
  <title>Layer 1</title>
  <path fill="#6fc9d1" id="svg_1" d="m559.98,120.31l-1.3125,-10.621l-202.56,-73.641l-3.0312,-1.0508l-6.1758,0l-205.43,74.691l-1.3125,10.621c-0.36719,2.9219 -33.879,293.98 202.51,403.08l3.4805,1.6094l7.8047,0l3.5,-1.6094c236.27,-109.09 202.9,-400.16 202.53,-403.08l-0.0032,0.0008zm-209.93,367.83c-183.98,-90.387 -179.88,-302.61 -176.15,-352.99l176.16,-64.051l176.17,64.051c3.707,50.398 7.7148,262.61 -176.18,352.99zm87.449,-243.14l-17.465,0l0,-35c0,-51.363 -41.879,-70 -70,-70l0,9.3281l-0.035156,-9.3281c-28.141,0 -70,18.637 -70,70l0,35l-17.5,0c-9.6602,0 -17.5,7.8398 -17.5,17.5l0,105c0,9.6758 7.8398,17.5 17.5,17.5l175,0c9.6758,0 17.5,-7.8242 17.5,-17.5l0,-105c0,-9.6602 -7.8242,-17.5 -17.5,-17.5l0.000156,0zm-122.5,-35c0,-31.922 26.809,-34.859 35.086,-35c5.9336,0 34.949,1.75 34.949,35l0,35l-70.035,0l0,-35zm105,140l-140,0l0,-70l140,0l0,70z"/>
 </g>
</svg>