<svg width="59" height="59" viewBox="0 0 59 59" fill="none" xmlns="http://www.w3.org/2000/svg">
<path d="M29.5 0C13.2467 0 0 13.2467 0 29.5C0 45.7533 13.2467 59 29.5 59C45.7541 59 59 45.7533 59 29.5C59 13.2467 45.7533 0 29.5 0ZM29.5 6.55594C42.2108 6.55594 52.4444 16.7898 52.4444 29.5004C52.4444 42.2106 42.2106 52.4448 29.5 52.4448C16.7894 52.4448 6.55555 42.2109 6.55555 29.5004C6.55555 16.7896 16.7894 6.55594 29.5 6.55594ZM29.5 12.0189C27.6899 12.0189 26.222 13.4868 26.222 15.2969V29.5008C26.222 30.4062 26.5848 31.2293 27.1777 31.8221L35.6793 40.3237C36.9589 41.6041 39.0425 41.6041 40.323 40.3237C41.6026 39.0441 41.6026 36.9604 40.323 35.68L32.7779 28.1341V15.2959C32.7779 13.4858 31.3108 12.0179 29.4999 12.0179L29.5 12.0189Z" fill="#1C9864"/>
</svg>
